M48
; DRILL file KiCad 10.0.5 date 2026-09-17T15:40:27
; FORMAT={-:-/ absolute / metric / decimal}
; #@! TF.CreationDate,2026-09-17T15:40:27-07:00
; #@! TF.GenerationSoftware,Kicad,Pcbnew,10.0.5
; #@! TF.FileFunction,Plated,1,6,PTH
FMAT,2
METRIC
; #@! TA.AperFunction,Plated,PTH,ViaDrill
T1C0.203
; #@! TA.AperFunction,Plated,PTH,ViaDrill
T2C0.254
; #@! TA.AperFunction,Plated,PTH,ComponentDrill
T3C0.254
; #@! TA.AperFunction,Plated,PTH,ComponentDrill
T4C0.300
; #@! TA.AperFunction,Plated,PTH,ComponentDrill
T5C0.400
; #@! TA.AperFunction,Plated,PTH,ComponentDrill
T6C0.500
; #@! TA.AperFunction,Plated,PTH,ViaDrill
T7C0.600
; #@! TA.AperFunction,Plated,PTH,ComponentDrill
T8C0.600
; #@! TA.AperFunction,Plated,PTH,ComponentDrill
T9C0.650
; #@! TA.AperFunction,Plated,PTH,ComponentDrill
T10C0.990
; #@! TA.AperFunction,Plated,PTH,ComponentDrill
T11C1.000
; #@! TA.AperFunction,Plated,PTH,ComponentDrill
T12C1.300
; #@! TA.AperFunction,Plated,PTH,ComponentDrill
T13C2.200
; #@! TA.AperFunction,Plated,PTH,ComponentDrill
T14C3.200
%
G90
G05
T1
X62.525Y-130.975
X62.8Y-136.05
X62.8Y-140.475
X62.825Y-146.65
X64.3Y-144.975
X64.35Y-138.7
X64.5Y-117.175
X64.525Y-147.275
X64.575Y-136.85
X64.6Y-142.1
X64.6Y-145.9
X64.7Y-140.0
X66.375Y-116.7
X66.4Y-119.15
X66.5Y-161.876
X66.725Y-136.05
X66.9Y-139.225
X66.975Y-132.425
X66.975Y-166.925
X67.4Y-119.175
X67.425Y-148.475
X67.45Y-144.075
X67.475Y-150.3
X68.3Y-165.35
X68.35Y-163.15
X68.425Y-156.45
X68.5Y-152.95
X68.5Y-159.875
X68.575Y-169.0
X68.675Y-130.825
X69.5Y-170.325
X69.75Y-157.2
X69.9Y-133.275
X69.975Y-164.95
X70.025Y-146.225
X70.025Y-150.075
X70.075Y-154.2
X70.15Y-122.35
X70.175Y-161.825
X70.25Y-135.175
X70.275Y-110.35
X70.275Y-140.15
X70.3Y-116.025
X70.325Y-118.75
X70.35Y-130.9
X71.25Y-171.025
X71.525Y-133.525
X71.55Y-166.5
X71.55Y-167.25
X71.773Y-144.475
X71.8Y-118.25
X71.849Y-108.588
X72.175Y-150.2
X72.3Y-169.225
X72.308Y-168.3
X72.5Y-145.53
X72.825Y-159.05
X72.85Y-162.068
X72.875Y-136.55
X72.899Y-114.013
X73.05Y-142.125
X73.25Y-173.275
X73.4Y-157.2
X73.425Y-165.05
X73.45Y-140.975
X73.625Y-101.35
X73.9Y-152.8
X73.95Y-167.85
X73.95Y-169.75
X74.0Y-171.0
X74.155Y-162.57
X74.2Y-165.4
X74.225Y-142.6
X74.55Y-159.1
X74.625Y-161.725
X74.65Y-163.55
X74.65Y-164.1
X74.75Y-147.775
X74.8Y-146.9
X74.925Y-166.875
X75.0Y-121.95
X75.13Y-152.831
X75.15Y-169.782
X75.325Y-135.6
X75.4Y-131.75
X76.025Y-103.95
X76.025Y-149.925
X76.155Y-161.825
X76.244Y-164.337
X76.3Y-152.825
X76.3Y-168.5
X76.475Y-109.5
X76.55Y-162.2
X76.65Y-106.025
X76.7Y-116.1
X76.725Y-110.575
X76.775Y-160.175
X76.85Y-145.425
X76.988Y-154.142
X77.073Y-155.584
X77.1Y-166.825
X77.257Y-106.755
X77.375Y-113.0
X77.4Y-136.575
X77.408Y-138.51
X77.425Y-157.5
X77.525Y-127.975
X77.65Y-172.55
X78.05Y-153.375
X78.3Y-146.2
X78.3Y-159.75
X78.312Y-164.206
X78.35Y-161.875
X78.362Y-143.466
X78.372Y-160.793
X78.453Y-144.375
X78.511Y-165.063
X78.55Y-150.525
X78.633Y-158.225
X78.75Y-161.3
X78.857Y-141.916
X78.95Y-156.65
X79.0Y-123.075
X79.0Y-169.067
X79.024Y-109.513
X79.1Y-152.125
X79.275Y-111.75
X79.275Y-155.05
X79.3Y-139.55
X79.4Y-142.375
X79.525Y-135.0
X79.625Y-147.9
X79.675Y-163.277
X79.826Y-140.528
X79.875Y-169.65
X79.9Y-110.525
X79.925Y-167.9
X80.0Y-159.9
X80.45Y-140.422
X80.45Y-163.275
X80.475Y-155.925
X80.5Y-158.25
X80.525Y-103.95
X80.525Y-157.425
X80.597Y-145.481
X80.6Y-149.85
X80.625Y-136.65
X80.713Y-143.371
X80.75Y-138.7
X80.75Y-161.525
X80.95Y-159.425
X81.0Y-154.625
X81.122Y-145.82
X81.15Y-168.525
X81.35Y-107.2
X81.375Y-106.175
X81.382Y-167.156
X81.411Y-164.907
X81.45Y-129.975
X81.566Y-145.422
X81.588Y-160.457
X81.725Y-169.65
X81.775Y-112.125
X81.85Y-161.625
X82.0Y-153.375
X82.275Y-110.525
X82.275Y-116.075
X82.375Y-155.525
X82.706Y-159.984
X82.75Y-146.325
X82.8Y-113.25
X82.95Y-119.45
X83.025Y-167.275
X83.07Y-171.009
X83.125Y-157.3
X83.35Y-169.225
X83.425Y-106.65
X83.725Y-124.875
X83.85Y-170.275
X84.1Y-172.125
X84.125Y-159.95
X84.2Y-137.499
X84.325Y-152.825
X84.517Y-162.45
X84.525Y-171.075
X84.6Y-147.0
X84.646Y-166.45
X84.767Y-165.25
X84.801Y-138.72
X84.865Y-148.086
X85.0Y-157.45
X85.275Y-134.925
X85.325Y-150.5
X85.343Y-171.34
X85.4Y-137.483
X85.55Y-113.45
X85.625Y-159.3
X85.625Y-160.2
X85.625Y-161.8
X85.625Y-162.725
X85.85Y-170.38
X85.9Y-149.35
X86.424Y-115.01
X86.45Y-155.0
X86.45Y-164.625
X86.45Y-166.475
X86.55Y-132.175
X86.6Y-137.025
X86.85Y-109.7
X86.966Y-161.8
X87.025Y-137.475
X87.125Y-164.05
X87.45Y-136.7
X87.475Y-148.8
X87.5Y-161.8
X87.575Y-168.05
X87.625Y-138.9
X87.625Y-160.0
X87.7Y-141.875
X87.75Y-144.725
X87.8Y-155.925
X87.875Y-137.075
X87.925Y-170.441
X88.15Y-122.5
X88.3Y-150.025
X88.362Y-138.787
X88.5Y-161.425
X88.525Y-169.75
X88.525Y-171.05
X88.625Y-113.725
X88.7Y-147.2
X88.8Y-137.1
X88.825Y-148.525
X88.925Y-153.1
X88.975Y-172.25
X89.0Y-151.375
X89.2Y-153.9
X89.225Y-146.85
X89.25Y-129.375
X89.3Y-159.75
X89.317Y-160.8
X89.332Y-171.534
X89.4Y-138.9
X89.55Y-167.275
X89.623Y-109.963
X89.65Y-145.675
X89.675Y-139.75
X89.7Y-137.083
X89.883Y-170.375
X89.9Y-158.525
X90.025Y-113.7
X90.575Y-172.805
X90.675Y-151.7
X90.675Y-152.8
X90.774Y-149.355
X90.875Y-119.575
X91.425Y-145.7
X91.45Y-137.55
X91.775Y-127.025
X91.9Y-155.825
X91.9Y-164.35
X91.9Y-162.209
X92.052Y-139.6
X92.225Y-135.425
X92.297Y-171.045
X92.6Y-147.375
X92.894Y-105.875
X93.075Y-151.125
X93.275Y-171.125
X93.3Y-141.4
X93.35Y-111.275
X93.45Y-116.625
X93.55Y-170.45
X93.566Y-158.6
X93.625Y-150.425
X93.625Y-161.9
X93.725Y-152.4
X93.825Y-144.3
X93.9Y-132.85
X94.225Y-142.525
X94.225Y-163.95
X94.475Y-167.75
X94.55Y-124.6
X94.65Y-140.883
X94.65Y-145.55
X94.725Y-101.125
X94.775Y-150.114
X94.8Y-165.675
X95.375Y-170.38
X95.45Y-138.975
X95.541Y-143.2
X95.8Y-165.675
X95.85Y-158.375
X95.9Y-152.367
X95.95Y-170.35
X96.025Y-150.475
X96.05Y-172.806
X96.125Y-145.1
X96.144Y-158.968
X96.2Y-148.1
X96.325Y-129.75
X96.425Y-134.85
X96.748Y-169.378
X96.75Y-141.825
X96.844Y-111.525
X96.846Y-158.622
X96.85Y-172.675
X96.994Y-105.75
X97.0Y-106.5
X97.025Y-142.65
X97.025Y-159.55
X97.05Y-161.875
X97.075Y-163.375
X97.4Y-141.175
X97.5Y-108.45
X97.587Y-158.63
X97.675Y-124.625
X97.75Y-116.6
X97.75Y-142.05
X97.9Y-165.025
X97.95Y-119.35
X98.175Y-108.45
X98.3Y-149.95
X98.325Y-170.38
X98.375Y-172.65
X98.475Y-160.9
X98.5Y-139.875
X98.709Y-155.664
X98.875Y-108.45
X98.95Y-133.475
X98.986Y-105.774
X99.0Y-163.85
X99.05Y-146.65
X99.125Y-137.6
X99.125Y-165.375
X99.193Y-158.55
X99.275Y-135.7
X99.3Y-114.825
X99.484Y-161.453
X99.641Y-171.78
X99.75Y-138.875
X99.75Y-141.95
X99.775Y-129.575
X100.325Y-165.35
X100.475Y-119.35
X100.55Y-134.675
X100.567Y-172.669
X100.65Y-122.025
X100.675Y-117.995
X100.825Y-124.6
X101.021Y-157.521
X101.125Y-164.875
X101.25Y-155.575
X101.45Y-150.0
X101.45Y-167.775
X101.525Y-131.825
X101.525Y-144.4
X101.572Y-151.638
X101.575Y-166.575
X101.575Y-172.125
X101.685Y-142.21
X101.75Y-148.725
X101.8Y-155.675
X101.9Y-135.7
X102.2Y-165.125
X102.275Y-144.175
X102.299Y-140.77
X102.325Y-165.675
X102.35Y-137.975
X102.35Y-140.1
X102.353Y-138.572
X102.475Y-155.65
X102.512Y-119.324
X102.775Y-172.375
X102.8Y-171.5
X102.9Y-145.6
X102.975Y-165.6
X103.127Y-122.062
X103.137Y-119.938
X103.15Y-116.15
X103.2Y-169.5
X103.425Y-111.275
X103.475Y-124.675
X103.55Y-166.551
X103.7Y-133.475
X103.775Y-129.575
X103.817Y-121.425
X103.85Y-107.525
X103.877Y-120.524
X103.9Y-146.201
X104.1Y-167.575
X104.125Y-165.6
X104.125Y-166.325
X104.125Y-172.875
X104.3Y-118.02
X104.4Y-135.2
X104.525Y-155.85
X104.577Y-170.648
X104.65Y-145.6
X104.71Y-169.184
X104.75Y-151.6
X104.75Y-168.3
X104.875Y-113.6
X104.963Y-154.994
X104.97Y-119.212
X105.05Y-166.567
X105.125Y-107.85
X105.225Y-135.025
X105.26Y-145.585
X105.375Y-109.05
X105.425Y-151.625
X105.532Y-116.605
X105.55Y-153.525
X105.569Y-154.438
X105.65Y-165.825
X105.75Y-134.506
X105.775Y-165.15
X105.805Y-169.03
X105.95Y-154.975
X106.08Y-167.043
X106.15Y-112.675
X106.25Y-151.05
X106.33Y-172.931
X106.375Y-135.075
X106.45Y-149.525
X106.45Y-166.625
X106.575Y-155.925
X106.725Y-147.3
X106.95Y-135.375
X106.963Y-155.146
X107.031Y-153.075
X107.034Y-172.834
X107.125Y-119.27
X107.15Y-130.15
X107.15Y-120.07
X107.225Y-145.95
X107.3Y-168.9
X107.388Y-117.564
X107.4Y-146.55
X107.45Y-122.55
X107.775Y-145.525
X107.957Y-103.901
X108.05Y-146.55
X108.057Y-106.426
X108.169Y-169.031
X108.2Y-168.275
X108.275Y-147.9
X108.35Y-164.75
X108.413Y-160.093
X108.42Y-145.5
X108.52Y-166.567
X108.625Y-170.925
X108.626Y-170.342
X108.83Y-162.108
X109.008Y-164.768
X109.184Y-119.954
X109.225Y-154.725
X109.225Y-119.27
X109.367Y-163.38
X109.372Y-161.297
X109.4Y-111.695
X109.425Y-160.6
X109.54Y-117.879
X109.7Y-122.875
X109.78Y-145.581
X109.8Y-164.275
X109.9Y-157.125
X110.05Y-159.1
X110.05Y-162.65
X110.15Y-111.695
X110.15Y-113.62
X110.544Y-135.025
X110.7Y-109.075
X110.75Y-170.55
X110.8Y-146.225
X111.017Y-145.0
X111.084Y-166.463
X111.1Y-124.575
X111.275Y-112.8
X111.3Y-169.4
X111.377Y-160.427
X111.6Y-129.45
X111.75Y-152.925
X111.775Y-154.825
X111.868Y-167.491
X111.925Y-106.3
X112.025Y-160.4
X112.05Y-144.05
X112.05Y-149.5
X112.075Y-101.05
X112.15Y-132.35
X112.175Y-135.0
X112.275Y-162.875
X112.275Y-111.845
X112.275Y-113.745
X112.325Y-147.3
X112.452Y-141.32
X112.475Y-140.625
X112.6Y-155.175
X112.625Y-153.275
X112.649Y-165.847
X112.744Y-169.558
X112.775Y-165.25
X112.813Y-169.028
X112.98Y-146.55
X113.295Y-157.592
X113.298Y-167.582
X113.3Y-112.825
X113.35Y-139.6
X113.5Y-164.5
X113.525Y-162.525
X113.625Y-146.55
X113.775Y-160.925
X113.825Y-147.925
X113.925Y-142.325
X114.139Y-164.42
X114.168Y-155.125
X114.21Y-166.071
X114.225Y-165.525
X114.302Y-159.284
X114.475Y-169.667
X114.8Y-137.975
X114.875Y-144.45
X114.925Y-113.75
X114.948Y-160.512
X114.95Y-146.8
X115.175Y-135.125
X115.2Y-156.1
X115.3Y-132.55
X115.366Y-157.151
X115.475Y-109.295
X115.85Y-113.65
X115.975Y-172.925
X116.05Y-147.975
X116.3Y-170.475
X116.375Y-143.45
X116.379Y-155.504
X116.4Y-139.775
X116.875Y-158.175
X117.065Y-161.471
X117.25Y-109.45
X117.469Y-162.872
X117.5Y-124.445
X117.517Y-122.221
X117.525Y-146.5
X117.543Y-158.993
X117.55Y-170.575
X117.7Y-140.85
X117.7Y-164.825
X117.86Y-169.576
X117.925Y-172.875
X118.025Y-121.67
X118.175Y-137.525
X118.2Y-112.3
X118.28Y-118.9
X118.487Y-160.516
X118.5Y-122.175
X118.575Y-133.8
X118.59Y-120.986
X118.609Y-169.098
X118.625Y-117.075
X118.625Y-129.325
X118.65Y-152.8
X118.675Y-117.675
X118.775Y-119.125
X118.873Y-123.008
X118.88Y-106.253
X119.017Y-121.914
X119.125Y-156.55
X119.193Y-164.178
X119.35Y-124.675
X119.6Y-162.475
X119.692Y-108.749
X119.775Y-110.025
X119.872Y-107.128
X120.0Y-166.325
X120.1Y-161.775
X120.1Y-168.75
X120.425Y-121.07
X120.45Y-118.77
X120.45Y-119.52
X120.469Y-164.64
X120.5Y-160.375
X120.7Y-110.895
X121.15Y-161.425
X121.162Y-117.495
X121.212Y-116.495
X121.225Y-167.575
X121.4Y-165.65
X121.65Y-122.875
X121.693Y-106.836
X121.857Y-104.519
X122.025Y-121.475
X122.275Y-163.65
X122.275Y-165.2
X122.3Y-162.15
X122.419Y-171.647
X122.775Y-159.4
X122.775Y-161.35
X123.15Y-167.85
X123.336Y-167.138
X123.425Y-159.4
X123.894Y-170.713
X124.025Y-124.6
X124.114Y-163.629
X124.475Y-110.895
X124.664Y-166.241
X124.679Y-170.94
X124.85Y-161.0
X125.05Y-109.037
X125.077Y-167.141
X125.3Y-165.8
X125.651Y-163.747
X127.125Y-156.8
X127.2Y-132.0
X127.2Y-140.625
X127.225Y-107.787
X127.35Y-101.025
X127.375Y-133.525
X127.388Y-164.0
X127.85Y-125.1
X127.925Y-165.025
X128.025Y-129.2
X128.067Y-171.406
X128.125Y-150.85
X128.148Y-159.192
X128.275Y-134.35
X128.725Y-139.45
X128.85Y-103.362
X128.95Y-106.337
X129.0Y-109.062
X129.025Y-112.562
X129.032Y-169.979
X129.034Y-164.486
X129.169Y-167.102
X129.275Y-138.1
X129.542Y-162.395
X129.55Y-164.975
X129.7Y-159.7
X129.973Y-166.979
X130.1Y-104.05
X130.325Y-157.025
X130.429Y-169.393
X130.745Y-160.289
X130.75Y-109.462
X130.85Y-128.35
X130.95Y-150.85
X131.05Y-152.975
X131.1Y-172.0
X131.114Y-161.614
X131.15Y-137.15
X131.25Y-113.212
X131.3Y-104.45
X131.725Y-105.075
X131.727Y-108.792
X131.75Y-104.0
X131.79Y-165.503
X131.85Y-132.875
X132.2Y-167.15
X132.275Y-104.725
X132.4Y-119.375
X132.744Y-161.238
X132.875Y-117.4
X133.0Y-140.35
X133.175Y-128.45
X133.287Y-167.287
X133.3Y-157.3
X133.35Y-161.423
X133.475Y-154.925
X133.586Y-164.742
X133.625Y-113.962
X133.725Y-104.925
X133.725Y-129.075
X134.225Y-108.862
X134.348Y-163.987
X134.35Y-113.962
X134.379Y-172.831
X134.525Y-159.475
X134.625Y-129.9
X134.75Y-146.175
X134.85Y-121.725
X135.275Y-164.475
X135.4Y-158.3
X135.424Y-146.989
X135.525Y-104.025
X135.65Y-124.0
X135.8Y-128.85
X135.825Y-172.925
X135.89Y-150.506
X135.975Y-142.85
X136.125Y-153.1
X136.134Y-160.137
X136.175Y-169.8
X136.287Y-137.459
X136.375Y-129.75
X136.4Y-154.925
X136.745Y-137.135
X137.225Y-146.4
X137.325Y-117.25
X137.389Y-107.109
X137.5Y-114.775
X137.65Y-151.4
X137.75Y-126.575
X137.8Y-119.425
X137.946Y-160.478
X137.975Y-111.975
X138.025Y-147.95
X138.125Y-144.275
X138.142Y-142.351
X138.15Y-139.15
X138.225Y-132.25
X138.25Y-134.525
X138.371Y-104.553
X138.475Y-108.362
X138.6Y-159.85
X139.153Y-140.99
X139.238Y-129.895
X139.283Y-143.174
X139.414Y-126.994
X139.425Y-157.625
X139.429Y-156.436
X139.535Y-106.956
X139.549Y-148.676
X139.725Y-120.2
X139.778Y-147.644
X139.898Y-158.261
X139.975Y-146.725
X140.159Y-151.297
X140.3Y-121.775
X140.35Y-156.6
X140.375Y-153.375
X140.4Y-169.75
X140.438Y-111.225
X140.439Y-149.769
X140.449Y-144.324
X140.475Y-139.15
X140.6Y-136.075
X140.691Y-141.159
X140.775Y-151.775
X140.95Y-133.55
X141.2Y-172.175
X141.22Y-140.101
X141.375Y-134.975
X141.375Y-147.0
X141.55Y-142.45
X141.552Y-133.944
X141.631Y-155.72
X141.729Y-159.83
X141.788Y-139.159
X141.875Y-106.625
X142.026Y-127.925
X142.05Y-141.525
X142.093Y-148.619
X142.25Y-147.269
X142.475Y-113.0
X142.528Y-156.999
X142.569Y-161.07
X142.6Y-143.275
X142.728Y-139.691
X142.734Y-135.866
X142.792Y-145.525
X142.84Y-140.819
X142.85Y-143.9
X142.887Y-147.137
X142.922Y-136.722
X143.0Y-170.325
X143.225Y-105.85
X143.25Y-117.2
X143.375Y-129.675
X143.381Y-150.976
X143.614Y-159.892
X143.625Y-169.119
X143.665Y-148.646
X143.725Y-143.925
X144.25Y-155.375
X144.3Y-121.275
X144.4Y-106.575
X144.45Y-152.65
X144.525Y-138.325
X144.525Y-140.725
X144.525Y-141.525
X144.525Y-142.325
X144.525Y-143.925
X144.525Y-145.525
X144.603Y-137.593
X144.625Y-174.25
X144.675Y-126.675
X144.725Y-113.825
X144.734Y-139.22
X144.928Y-160.847
X145.325Y-136.777
X145.325Y-139.925
X145.325Y-140.725
X145.325Y-141.525
X145.325Y-142.325
X145.325Y-143.125
X145.325Y-143.925
X145.325Y-144.725
X145.325Y-145.525
X145.325Y-146.325
X145.331Y-138.315
X145.35Y-155.375
X145.8Y-156.7
X145.825Y-116.675
X145.826Y-129.657
X145.975Y-101.25
X146.075Y-131.5
X146.112Y-133.702
X146.125Y-137.525
X146.125Y-139.094
X146.125Y-139.882
X146.125Y-140.725
X146.125Y-142.325
X146.125Y-143.125
X146.125Y-143.925
X146.125Y-145.525
X146.168Y-138.323
X146.25Y-158.775
X146.725Y-117.425
X146.725Y-130.775
X146.925Y-137.525
X146.925Y-143.925
X146.925Y-144.725
X146.944Y-139.102
X146.95Y-143.125
X146.95Y-151.922
X147.076Y-149.602
X147.15Y-112.25
X147.175Y-141.425
X147.175Y-142.45
X147.454Y-117.741
X147.625Y-171.2
X147.7Y-135.15
X147.7Y-155.525
X147.725Y-138.325
X147.725Y-144.725
X147.731Y-139.098
X147.75Y-154.55
X147.756Y-140.169
X147.8Y-142.3
X147.9Y-159.95
X147.919Y-131.4
X147.975Y-133.825
X148.025Y-127.05
X148.1Y-125.65
X148.15Y-141.3
X148.45Y-161.925
X148.506Y-137.525
X148.525Y-144.725
X148.525Y-145.525
X148.544Y-139.117
X148.575Y-140.225
X148.634Y-133.384
X148.644Y-142.866
X148.733Y-151.913
X148.75Y-149.5
X148.95Y-119.7
X149.065Y-134.078
X149.3Y-140.8
X149.3Y-142.875
X149.319Y-137.525
X149.325Y-136.75
X149.325Y-138.325
X149.325Y-144.725
X149.575Y-134.425
X149.75Y-105.225
X149.75Y-109.375
X149.837Y-142.26
X150.1Y-139.925
X150.116Y-138.318
X150.119Y-136.743
X150.119Y-141.494
X150.125Y-137.525
X150.125Y-143.125
X150.125Y-145.525
X150.128Y-140.678
X150.175Y-172.75
X150.2Y-111.825
X150.2Y-156.275
X150.262Y-120.657
X150.275Y-160.75
X150.325Y-126.85
X150.35Y-129.85
X150.55Y-110.775
X150.575Y-151.975
X150.6Y-149.5
X150.75Y-154.75
X150.875Y-136.75
X150.9Y-137.5
X150.907Y-142.357
X150.919Y-141.523
X150.925Y-143.155
X150.925Y-143.925
X150.925Y-144.725
X150.925Y-145.525
X150.926Y-139.919
X150.928Y-139.128
X150.957Y-140.706
X151.225Y-169.25
X151.35Y-148.55
X151.518Y-119.7
X151.706Y-141.522
X151.725Y-143.125
X151.725Y-144.725
X151.725Y-145.525
X151.75Y-121.0
X151.75Y-137.525
X152.5Y-148.475
X152.505Y-115.933
X152.525Y-117.45
X152.525Y-140.725
X152.536Y-141.525
X152.564Y-139.914
X152.575Y-133.8
X152.575Y-156.925
X152.577Y-138.325
X152.65Y-160.05
X152.763Y-124.745
X152.8Y-153.9
X152.925Y-149.1
X153.325Y-127.625
X153.325Y-136.7
X153.45Y-109.275
X153.475Y-108.025
X153.475Y-110.65
X153.95Y-164.85
X154.15Y-147.15
X154.225Y-149.925
X154.275Y-172.95
X154.3Y-132.35
X154.422Y-140.332
X154.451Y-145.489
X154.525Y-137.925
X154.575Y-141.125
X154.581Y-144.009
X154.9Y-129.225
X154.9Y-131.175
X154.97Y-147.782
X155.05Y-115.6
X155.225Y-106.45
X155.268Y-140.385
X155.45Y-111.5
X155.45Y-113.975
X155.475Y-139.6
X155.525Y-151.125
X155.625Y-170.2
X155.7Y-116.575
X155.75Y-109.775
X155.75Y-125.4
X155.875Y-156.2
X155.975Y-133.9
X156.0Y-131.425
X156.05Y-159.366
X156.068Y-149.377
X156.125Y-142.525
X156.575Y-124.6
X156.6Y-105.725
X156.6Y-109.775
X156.625Y-138.3
X156.65Y-136.7
X156.767Y-144.966
X156.9Y-103.825
X157.075Y-131.25
X157.1Y-153.7
X157.125Y-128.725
X157.234Y-122.247
X157.4Y-112.95
X157.425Y-124.575
X157.65Y-114.825
X157.925Y-106.7
X157.95Y-152.55
X157.975Y-131.4
X158.0Y-158.45
X158.1Y-123.65
X158.1Y-126.975
X158.125Y-128.625
X158.35Y-110.325
X158.5Y-150.125
X158.648Y-114.298
X158.8Y-129.45
X158.825Y-161.375
X158.847Y-159.566
X158.943Y-146.566
X159.0Y-138.3
X159.0Y-144.966
X159.025Y-136.7
X159.15Y-172.8
X159.241Y-121.568
X159.25Y-101.5
X159.3Y-110.9
X159.325Y-111.525
X159.5Y-114.425
X159.6Y-126.65
X159.625Y-138.3
X159.804Y-115.2
X159.825Y-119.825
X159.843Y-118.775
X159.95Y-154.825
X159.975Y-115.925
X160.15Y-169.475
X160.3Y-124.1
X160.65Y-156.825
X160.7Y-143.925
X160.9Y-107.35
X160.925Y-161.375
X161.125Y-150.0
X161.15Y-111.275
X161.775Y-109.975
X161.825Y-108.725
X161.9Y-112.45
X161.95Y-114.325
X162.2Y-140.7
X162.275Y-143.125
X162.325Y-151.975
X162.55Y-144.85
X162.68Y-161.308
X163.075Y-132.6
X163.15Y-124.475
X163.325Y-136.6
X163.375Y-131.55
X163.464Y-130.481
X163.475Y-117.55
X163.5Y-172.825
X163.7Y-127.175
X163.809Y-108.791
X163.875Y-109.95
X163.95Y-129.2
X164.039Y-123.176
X164.25Y-153.7
X164.25Y-154.55
X164.275Y-144.5
X164.275Y-156.775
X164.45Y-138.225
X164.65Y-130.175
X165.15Y-107.325
X165.175Y-128.75
X165.275Y-122.5
X165.35Y-124.825
X165.438Y-112.331
X165.525Y-146.325
X165.589Y-118.126
X165.825Y-133.2
X166.03Y-127.325
X166.053Y-111.715
X166.15Y-161.175
X166.164Y-120.951
X166.175Y-169.55
X166.3Y-127.975
X166.375Y-144.05
X166.469Y-113.1
X166.5Y-105.375
X166.525Y-138.35
X166.57Y-127.325
X167.125Y-110.3
X167.125Y-125.9
X167.2Y-157.5
X167.284Y-129.977
X167.475Y-106.7
X167.525Y-118.125
X167.575Y-115.825
X167.575Y-149.65
X167.775Y-146.45
X167.875Y-132.175
X168.514Y-119.826
X168.675Y-133.4
X168.875Y-161.475
X168.9Y-136.7
X168.925Y-110.0
X169.075Y-113.425
X169.075Y-114.325
X169.139Y-123.726
X169.575Y-111.25
X169.575Y-168.625
X169.6Y-126.125
X169.675Y-108.75
X169.675Y-157.875
X169.85Y-113.075
X170.325Y-164.425
X170.794Y-121.169
X171.025Y-128.75
X171.175Y-113.025
X171.55Y-117.55
X171.564Y-123.426
X171.65Y-120.275
X171.714Y-125.451
X171.725Y-113.85
X171.725Y-121.748
X171.981Y-128.1
X172.015Y-126.59
X172.347Y-165.935
X172.5Y-158.075
X173.275Y-110.825
X174.812Y-115.9
X175.062Y-112.275
X175.7Y-108.625
X175.75Y-115.625
X175.871Y-152.135
X176.025Y-156.175
X176.362Y-111.75
X176.575Y-123.8
X177.3Y-136.6
X177.412Y-108.925
X178.65Y-121.9
X179.0Y-156.625
X179.125Y-151.025
T2
X116.317Y-167.641
T3
X79.6Y-164.65
X79.6Y-165.35
X80.2Y-164.65
X80.2Y-165.35
X87.25Y-151.95
X87.25Y-152.45
X87.75Y-151.95
X87.75Y-152.45
X95.05Y-162.25
X95.05Y-162.75
X95.55Y-162.25
X95.55Y-162.75
X115.217Y-166.541
X115.217Y-168.741
X117.417Y-166.541
X117.417Y-168.741
X149.396Y-113.669
X149.396Y-114.669
X150.146Y-114.169
X150.896Y-113.669
X150.896Y-114.669
T4
X62.2Y-156.8
X62.2Y-157.9
X62.2Y-159.0
X62.2Y-163.0
X62.2Y-164.1
X62.2Y-165.2
X63.2Y-156.8
X63.2Y-157.9
X63.2Y-159.0
X63.2Y-163.0
X63.2Y-164.1
X63.2Y-165.2
X64.2Y-156.8
X64.2Y-157.9
X64.2Y-159.0
X64.2Y-163.0
X64.2Y-164.1
X64.2Y-165.2
X65.2Y-156.8
X65.2Y-157.9
X65.2Y-159.0
X65.2Y-163.0
X65.2Y-164.1
X65.2Y-165.2
X76.25Y-143.6
X76.25Y-144.2
X76.95Y-143.6
X76.95Y-144.2
X83.5Y-141.2
X83.5Y-142.2
X83.5Y-143.2
X84.5Y-141.2
X84.5Y-142.2
X84.5Y-143.2
X85.5Y-141.2
X85.5Y-142.2
X85.5Y-143.2
X101.75Y-158.25
X101.75Y-159.525
X101.75Y-160.8
X101.75Y-162.075
X101.75Y-163.35
X103.025Y-158.25
X103.025Y-159.525
X103.025Y-160.8
X103.025Y-162.075
X103.025Y-163.35
X104.3Y-158.25
X104.3Y-159.525
X104.3Y-160.8
X104.3Y-162.075
X104.3Y-163.35
X105.0Y-138.1
X105.0Y-139.3
X105.0Y-140.5
X105.0Y-141.7
X105.0Y-142.9
X105.575Y-158.25
X105.575Y-159.525
X105.575Y-160.8
X105.575Y-162.075
X105.575Y-163.35
X106.2Y-138.1
X106.2Y-139.3
X106.2Y-140.5
X106.2Y-141.7
X106.2Y-142.9
X106.85Y-158.25
X106.85Y-159.525
X106.85Y-160.8
X106.85Y-162.075
X106.85Y-163.35
X107.4Y-138.1
X107.4Y-139.3
X107.4Y-140.5
X107.4Y-141.7
X107.4Y-142.9
X108.6Y-138.1
X108.6Y-139.3
X108.6Y-140.5
X108.6Y-141.7
X108.6Y-142.9
X109.8Y-138.1
X109.8Y-139.3
X109.8Y-140.5
X109.8Y-141.7
X109.8Y-142.9
X111.475Y-115.6
X111.475Y-116.875
X111.475Y-118.15
X111.475Y-119.425
X111.475Y-120.7
X112.75Y-115.6
X112.75Y-116.875
X112.75Y-118.15
X112.75Y-119.425
X112.75Y-120.7
X114.025Y-115.6
X114.025Y-116.875
X114.025Y-118.15
X114.025Y-119.425
X114.025Y-120.7
X115.3Y-115.6
X115.3Y-116.875
X115.3Y-118.15
X115.3Y-119.425
X115.3Y-120.7
X116.575Y-115.6
X116.575Y-116.875
X116.575Y-118.15
X116.575Y-119.425
X116.575Y-120.7
X174.8Y-140.8
X174.8Y-141.9
X174.8Y-143.0
X174.8Y-147.0
X174.8Y-148.1
X174.8Y-149.2
X174.8Y-158.8
X174.8Y-159.9
X174.8Y-161.0
X174.8Y-165.0
X174.8Y-166.1
X174.8Y-167.2
X175.8Y-140.8
X175.8Y-141.9
X175.8Y-143.0
X175.8Y-147.0
X175.8Y-148.1
X175.8Y-149.2
X175.8Y-158.8
X175.8Y-159.9
X175.8Y-161.0
X175.8Y-165.0
X175.8Y-166.1
X175.8Y-167.2
X176.8Y-140.8
X176.8Y-141.9
X176.8Y-143.0
X176.8Y-147.0
X176.8Y-148.1
X176.8Y-149.2
X176.8Y-158.8
X176.8Y-159.9
X176.8Y-161.0
X176.8Y-165.0
X176.8Y-166.1
X176.8Y-167.2
X177.8Y-140.8
X177.8Y-141.9
X177.8Y-143.0
X177.8Y-147.0
X177.8Y-148.1
X177.8Y-149.2
X177.8Y-158.8
X177.8Y-159.9
X177.8Y-161.0
X177.8Y-165.0
X177.8Y-166.1
X177.8Y-167.2
T5
X62.35Y-153.5
X62.833Y-152.333
X62.833Y-154.667
X64.0Y-151.85
X64.0Y-155.15
X65.167Y-152.333
X65.167Y-154.667
X65.65Y-153.5
X69.35Y-127.0
X69.833Y-125.833
X69.833Y-128.167
X71.0Y-125.35
X71.0Y-128.65
X72.167Y-125.833
X72.167Y-128.167
X72.65Y-127.0
X167.35Y-172.0
X167.833Y-170.833
X167.833Y-173.167
X169.0Y-170.35
X169.0Y-173.65
X170.167Y-170.833
X170.167Y-173.167
X170.65Y-172.0
X175.85Y-132.0
X176.333Y-130.833
X176.333Y-133.167
X177.5Y-130.35
X177.5Y-133.65
X178.667Y-130.833
X178.667Y-133.167
X179.15Y-132.0
T6
X61.8Y-104.0
X61.8Y-171.0
X62.444Y-102.444
X62.444Y-105.556
X62.444Y-169.444
X62.444Y-172.556
X64.0Y-101.8
X64.0Y-106.2
X64.0Y-168.8
X64.0Y-173.2
X65.556Y-102.444
X65.556Y-105.556
X65.556Y-169.444
X65.556Y-172.556
X66.2Y-104.0
X66.2Y-171.0
X173.8Y-104.0
X173.8Y-171.0
X174.444Y-102.444
X174.444Y-105.556
X174.444Y-169.444
X174.444Y-172.556
X176.0Y-101.8
X176.0Y-106.2
X176.0Y-168.8
X176.0Y-173.2
X177.556Y-102.444
X177.556Y-105.556
X177.556Y-169.444
X177.556Y-172.556
X178.2Y-104.0
X178.2Y-171.0
T7
X138.4Y-124.6
T9
X140.26Y-123.23
X140.26Y-124.5
X141.53Y-123.23
X141.53Y-124.5
X142.8Y-123.23
X142.8Y-124.5
X144.07Y-123.23
X144.07Y-124.5
X145.34Y-123.23
X145.34Y-124.5
T10
X62.7Y-109.15
X62.7Y-113.65
X62.7Y-122.15
X62.7Y-126.65
T11
X122.23Y-130.55
X122.23Y-133.09
X122.23Y-135.63
X122.23Y-138.17
X122.23Y-140.71
X122.23Y-143.25
X122.23Y-145.79
X122.23Y-148.33
X122.23Y-150.87
X122.23Y-153.41
X122.23Y-155.95
X124.77Y-130.55
X124.77Y-133.09
X124.77Y-135.63
X124.77Y-138.17
X124.77Y-140.71
X124.77Y-143.25
X124.77Y-145.79
X124.77Y-148.33
X124.77Y-150.87
X124.77Y-153.41
X124.77Y-155.95
X137.47Y-163.57
X137.47Y-166.11
X140.01Y-163.57
X140.01Y-166.11
X142.55Y-163.57
X142.55Y-166.11
X145.09Y-163.57
X145.09Y-166.11
X147.63Y-163.57
X147.63Y-166.11
X150.17Y-163.57
X150.17Y-166.11
X152.71Y-163.57
X152.71Y-166.11
X155.25Y-163.57
X155.25Y-166.11
X157.79Y-163.57
X157.79Y-166.11
X160.33Y-163.57
X160.33Y-166.11
X162.87Y-163.57
X162.87Y-166.11
X165.41Y-163.57
X165.41Y-166.11
X167.95Y-163.57
X167.95Y-166.11
X170.49Y-130.55
X170.49Y-133.09
X170.49Y-135.63
X170.49Y-138.17
X170.49Y-140.71
X170.49Y-143.25
X170.49Y-145.79
X170.49Y-148.33
X170.49Y-150.87
X170.49Y-153.41
X170.49Y-155.95
X173.03Y-130.55
X173.03Y-133.09
X173.03Y-135.63
X173.03Y-138.17
X173.03Y-140.71
X173.03Y-143.25
X173.03Y-145.79
X173.03Y-148.33
X173.03Y-150.87
X173.03Y-153.41
X173.03Y-155.95
T12
X65.19Y-107.89
X65.19Y-114.9
X65.19Y-120.89
X65.19Y-127.9
T13
X64.0Y-153.5
X71.0Y-127.0
X169.0Y-172.0
X177.5Y-132.0
T14
X64.0Y-104.0
X64.0Y-171.0
X176.0Y-104.0
X176.0Y-171.0
T8
G00X173.67Y-119.68
M15
G01X174.77Y-119.68
M16
G05
G00X173.67Y-128.32
M15
G01X174.77Y-128.32
M16
G05
G00X178.1Y-119.68
M15
G01X178.7Y-119.68
M16
G05
G00X178.1Y-128.32
M15
G01X178.7Y-128.32
M16
G05
M30
