%TF.GenerationSoftware,KiCad,Pcbnew,10.0.5*%
%TF.CreationDate,2026-09-17T15:40:50-07:00*%
%TF.ProjectId,q-radio,712d7261-6469-46f2-9e6b-696361645f70,1*%
%TF.SameCoordinates,Original*%
%TF.FileFunction,Paste,Top*%
%TF.FilePolarity,Positive*%
%FSLAX46Y46*%
G04 Gerber Fmt 4.6, Leading zero omitted, Abs format (unit mm)*
G04 Created by KiCad (PCBNEW 10.0.5) date 2026-09-17 15:40:50*
%MOMM*%
%LPD*%
G01*
G04 APERTURE LIST*
G04 Aperture macros list*
%AMRoundRect*
0 Rectangle with rounded corners*
0 $1 Rounding radius*
0 $2 $3 $4 $5 $6 $7 $8 $9 X,Y pos of 4 corners*
0 Add a 4 corners polygon primitive as box body*
4,1,4,$2,$3,$4,$5,$6,$7,$8,$9,$2,$3,0*
0 Add four circle primitives for the rounded corners*
1,1,$1+$1,$2,$3*
1,1,$1+$1,$4,$5*
1,1,$1+$1,$6,$7*
1,1,$1+$1,$8,$9*
0 Add four rect primitives between the rounded corners*
20,1,$1+$1,$2,$3,$4,$5,0*
20,1,$1+$1,$4,$5,$6,$7,0*
20,1,$1+$1,$6,$7,$8,$9,0*
20,1,$1+$1,$8,$9,$2,$3,0*%
%AMFreePoly0*
4,1,19,0.312807,0.323103,0.341377,0.273618,0.342646,0.259112,0.342646,-0.189911,0.323103,-0.243606,0.318179,-0.248978,0.248978,-0.318179,0.197191,-0.342328,0.189911,-0.342646,-0.259112,-0.342646,-0.312807,-0.323103,-0.341377,-0.273618,-0.342646,-0.259112,-0.342646,0.259112,-0.323103,0.312807,-0.273618,0.341377,-0.259112,0.342646,0.259112,0.342646,0.312807,0.323103,0.312807,0.323103,
$1*%
%AMFreePoly1*
4,1,15,0.260501,0.381657,0.321190,0.320968,0.342646,0.269167,0.342646,-0.269167,0.321190,-0.320968,0.260501,-0.381657,0.208700,-0.403113,-0.269389,-0.403113,-0.321190,-0.381657,-0.342646,-0.329856,-0.342646,0.329856,-0.321190,0.381657,-0.269389,0.403113,0.208700,0.403113,0.260501,0.381657,0.260501,0.381657,$1*%
%AMFreePoly2*
4,1,19,0.243606,0.323103,0.248978,0.318179,0.318179,0.248978,0.342328,0.197191,0.342646,0.189911,0.342646,-0.259112,0.323103,-0.312807,0.273618,-0.341377,0.259112,-0.342646,-0.259112,-0.342646,-0.312807,-0.323103,-0.341377,-0.273618,-0.342646,-0.259112,-0.342646,0.259112,-0.323103,0.312807,-0.273618,0.341377,-0.259112,0.342646,0.189911,0.342646,0.243606,0.323103,0.243606,0.323103,
$1*%
%AMFreePoly3*
4,1,15,0.381657,0.321190,0.403113,0.269389,0.403113,-0.208700,0.381657,-0.260501,0.320968,-0.321190,0.269167,-0.342646,-0.269167,-0.342646,-0.320968,-0.321190,-0.381657,-0.260501,-0.403113,-0.208700,-0.403113,0.269389,-0.381657,0.321190,-0.329856,0.342646,0.329856,0.342646,0.381657,0.321190,0.381657,0.321190,$1*%
%AMFreePoly4*
4,1,15,0.320968,0.321190,0.381657,0.260501,0.403113,0.208700,0.403113,-0.269389,0.381657,-0.321190,0.329856,-0.342646,-0.329856,-0.342646,-0.381657,-0.321190,-0.403113,-0.269389,-0.403113,0.208700,-0.381657,0.260501,-0.320968,0.321190,-0.269167,0.342646,0.269167,0.342646,0.320968,0.321190,0.320968,0.321190,$1*%
%AMFreePoly5*
4,1,19,0.312807,0.323103,0.341377,0.273618,0.342646,0.259112,0.342646,-0.259112,0.323103,-0.312807,0.273618,-0.341377,0.259112,-0.342646,-0.189911,-0.342646,-0.243606,-0.323103,-0.248978,-0.318179,-0.318179,-0.248978,-0.342328,-0.197191,-0.342646,-0.189911,-0.342646,0.259112,-0.323103,0.312807,-0.273618,0.341377,-0.259112,0.342646,0.259112,0.342646,0.312807,0.323103,0.312807,0.323103,
$1*%
%AMFreePoly6*
4,1,15,0.321190,0.381657,0.342646,0.329856,0.342646,-0.329856,0.321190,-0.381657,0.269389,-0.403113,-0.208700,-0.403113,-0.260501,-0.381657,-0.321190,-0.320968,-0.342646,-0.269167,-0.342646,0.269167,-0.321190,0.320968,-0.260501,0.381657,-0.208700,0.403113,0.269389,0.403113,0.321190,0.381657,0.321190,0.381657,$1*%
%AMFreePoly7*
4,1,19,0.312807,0.323103,0.341377,0.273618,0.342646,0.259112,0.342646,-0.259112,0.323103,-0.312807,0.273618,-0.341377,0.259112,-0.342646,-0.259112,-0.342646,-0.312807,-0.323103,-0.341377,-0.273618,-0.342646,-0.259112,-0.342646,0.189911,-0.323103,0.243606,-0.318179,0.248978,-0.248978,0.318179,-0.197191,0.342328,-0.189911,0.342646,0.259112,0.342646,0.312807,0.323103,0.312807,0.323103,
$1*%
G04 Aperture macros list end*
%ADD10RoundRect,0.049500X0.148500X-0.175500X0.148500X0.175500X-0.148500X0.175500X-0.148500X-0.175500X0*%
%ADD11RoundRect,0.099000X0.297000X-0.328500X0.297000X0.328500X-0.297000X0.328500X-0.297000X-0.328500X0*%
%ADD12RoundRect,0.049500X0.148500X-0.355500X0.148500X0.355500X-0.148500X0.355500X-0.148500X-0.355500X0*%
%ADD13RoundRect,0.095625X0.300375X-0.286875X0.300375X0.286875X-0.300375X0.286875X-0.300375X-0.286875X0*%
%ADD14RoundRect,0.079500X-0.100500X0.079500X-0.100500X-0.079500X0.100500X-0.079500X0.100500X0.079500X0*%
%ADD15RoundRect,0.079500X0.100500X-0.079500X0.100500X0.079500X-0.100500X0.079500X-0.100500X-0.079500X0*%
%ADD16RoundRect,0.079500X-0.079500X-0.100500X0.079500X-0.100500X0.079500X0.100500X-0.079500X0.100500X0*%
%ADD17RoundRect,0.079500X0.079500X0.100500X-0.079500X0.100500X-0.079500X-0.100500X0.079500X-0.100500X0*%
%ADD18RoundRect,0.126000X-0.126000X-0.153000X0.126000X-0.153000X0.126000X0.153000X-0.126000X0.153000X0*%
%ADD19RoundRect,0.126000X-0.153000X0.126000X-0.153000X-0.126000X0.153000X-0.126000X0.153000X0.126000X0*%
%ADD20RoundRect,0.126000X0.126000X0.153000X-0.126000X0.153000X-0.126000X-0.153000X0.126000X-0.153000X0*%
%ADD21RoundRect,0.225000X0.225000X0.427500X-0.225000X0.427500X-0.225000X-0.427500X0.225000X-0.427500X0*%
%ADD22RoundRect,0.126000X0.153000X-0.126000X0.153000X0.126000X-0.153000X0.126000X-0.153000X-0.126000X0*%
%ADD23RoundRect,0.225000X0.427500X-0.225000X0.427500X0.225000X-0.427500X0.225000X-0.427500X-0.225000X0*%
%ADD24RoundRect,0.225000X-0.225000X-0.427500X0.225000X-0.427500X0.225000X0.427500X-0.225000X0.427500X0*%
%ADD25RoundRect,0.225000X-0.427500X0.225000X-0.427500X-0.225000X0.427500X-0.225000X0.427500X0.225000X0*%
%ADD26RoundRect,0.095000X-0.040000X-0.000010X0.040000X-0.000010X0.040000X0.000010X-0.040000X0.000010X0*%
%ADD27R,0.450000X0.280000*%
%ADD28R,0.280000X0.450000*%
%ADD29RoundRect,0.144000X0.216000X0.396000X-0.216000X0.396000X-0.216000X-0.396000X0.216000X-0.396000X0*%
%ADD30R,1.080000X3.330000*%
%ADD31RoundRect,0.196875X0.230625X-0.196875X0.230625X0.196875X-0.230625X0.196875X-0.230625X-0.196875X0*%
%ADD32RoundRect,0.135000X-0.135000X0.461250X-0.135000X-0.461250X0.135000X-0.461250X0.135000X0.461250X0*%
%ADD33RoundRect,0.135000X-0.461250X-0.135000X0.461250X-0.135000X0.461250X0.135000X-0.461250X0.135000X0*%
%ADD34RoundRect,0.121500X0.166500X-0.121500X0.166500X0.121500X-0.166500X0.121500X-0.166500X-0.121500X0*%
%ADD35RoundRect,0.121500X-0.166500X0.121500X-0.166500X-0.121500X0.166500X-0.121500X0.166500X0.121500X0*%
%ADD36RoundRect,0.121500X0.121500X0.166500X-0.121500X0.166500X-0.121500X-0.166500X0.121500X-0.166500X0*%
%ADD37RoundRect,0.121500X-0.121500X-0.166500X0.121500X-0.166500X0.121500X0.166500X-0.121500X0.166500X0*%
%ADD38R,0.297000X0.369000*%
%ADD39R,0.369000X0.297000*%
%ADD40RoundRect,0.008100X-0.072900X-0.081900X0.072900X-0.081900X0.072900X0.081900X-0.072900X0.081900X0*%
%ADD41O,0.540000X0.225000*%
%ADD42O,0.225000X0.540000*%
%ADD43R,0.900000X0.900000*%
%ADD44FreePoly0,270.000000*%
%ADD45FreePoly1,270.000000*%
%ADD46FreePoly2,270.000000*%
%ADD47FreePoly3,270.000000*%
%ADD48RoundRect,0.201557X-0.201556X0.201556X-0.201556X-0.201556X0.201556X-0.201556X0.201556X0.201556X0*%
%ADD49FreePoly4,270.000000*%
%ADD50FreePoly5,270.000000*%
%ADD51FreePoly6,270.000000*%
%ADD52FreePoly7,270.000000*%
%ADD53RoundRect,0.056250X-0.056250X0.303750X-0.056250X-0.303750X0.056250X-0.303750X0.056250X0.303750X0*%
%ADD54RoundRect,0.056250X-0.303750X0.056250X-0.303750X-0.056250X0.303750X-0.056250X0.303750X0.056250X0*%
%ADD55RoundRect,0.018750X0.093750X0.093750X-0.093750X0.093750X-0.093750X-0.093750X0.093750X-0.093750X0*%
%ADD56RoundRect,0.018750X0.093750X-0.093750X0.093750X0.093750X-0.093750X0.093750X-0.093750X-0.093750X0*%
%ADD57RoundRect,0.018750X-0.093750X0.093750X-0.093750X-0.093750X0.093750X-0.093750X0.093750X0.093750X0*%
%ADD58RoundRect,0.090000X0.202500X0.090000X-0.202500X0.090000X-0.202500X-0.090000X0.202500X-0.090000X0*%
%ADD59R,0.562500X0.225000*%
%ADD60R,0.630000X0.405000*%
%ADD61R,0.517500X0.405000*%
%ADD62RoundRect,0.250000X-0.292217X-0.292217X0.292217X-0.292217X0.292217X0.292217X-0.292217X0.292217X0*%
%ADD63RoundRect,0.056250X-0.337500X-0.056250X0.337500X-0.056250X0.337500X0.056250X-0.337500X0.056250X0*%
%ADD64RoundRect,0.056250X-0.056250X-0.337500X0.056250X-0.337500X0.056250X0.337500X-0.056250X0.337500X0*%
%ADD65RoundRect,0.250000X0.263170X-0.263170X0.263170X0.263170X-0.263170X0.263170X-0.263170X-0.263170X0*%
%ADD66RoundRect,0.056250X0.056250X-0.303750X0.056250X0.303750X-0.056250X0.303750X-0.056250X-0.303750X0*%
%ADD67RoundRect,0.056250X0.303750X-0.056250X0.303750X0.056250X-0.303750X0.056250X-0.303750X-0.056250X0*%
%ADD68RoundRect,0.250000X0.335000X0.335000X-0.335000X0.335000X-0.335000X-0.335000X0.335000X-0.335000X0*%
%ADD69RoundRect,0.056250X0.303750X0.056250X-0.303750X0.056250X-0.303750X-0.056250X0.303750X-0.056250X0*%
%ADD70RoundRect,0.056250X0.056250X0.303750X-0.056250X0.303750X-0.056250X-0.303750X0.056250X-0.303750X0*%
%ADD71RoundRect,0.146250X0.585000X0.146250X-0.585000X0.146250X-0.585000X-0.146250X0.585000X-0.146250X0*%
%ADD72RoundRect,0.031000X0.070000X-0.070000X0.070000X0.070000X-0.070000X0.070000X-0.070000X-0.070000X0*%
%ADD73O,0.202000X0.715000*%
%ADD74R,0.945000X0.612000*%
%ADD75R,0.450000X0.234000*%
%ADD76C,0.360000*%
%ADD77RoundRect,0.225000X0.405000X0.315000X-0.405000X0.315000X-0.405000X-0.315000X0.405000X-0.315000X0*%
%ADD78R,1.620000X0.900000*%
%ADD79RoundRect,0.225000X-0.225000X-0.450000X0.225000X-0.450000X0.225000X0.450000X-0.225000X0.450000X0*%
%ADD80RoundRect,0.078750X-0.225000X-0.078750X0.225000X-0.078750X0.225000X0.078750X-0.225000X0.078750X0*%
%ADD81RoundRect,0.196875X-0.230625X0.196875X-0.230625X-0.196875X0.230625X-0.196875X0.230625X0.196875X0*%
%ADD82RoundRect,0.090000X-0.090000X0.202500X-0.090000X-0.202500X0.090000X-0.202500X0.090000X0.202500X0*%
%ADD83RoundRect,0.250000X0.292217X0.292217X-0.292217X0.292217X-0.292217X-0.292217X0.292217X-0.292217X0*%
%ADD84RoundRect,0.056250X0.337500X0.056250X-0.337500X0.056250X-0.337500X-0.056250X0.337500X-0.056250X0*%
%ADD85RoundRect,0.056250X0.056250X0.337500X-0.056250X0.337500X-0.056250X-0.337500X0.056250X-0.337500X0*%
%ADD86R,0.360000X0.450000*%
%ADD87R,0.270000X0.450000*%
%ADD88R,0.450000X0.360000*%
%ADD89R,0.450000X0.270000*%
%ADD90RoundRect,0.000000X-0.135000X-0.135000X0.135000X-0.135000X0.135000X0.135000X-0.135000X0.135000X0*%
%ADD91RoundRect,0.033750X-0.123750X0.101250X-0.123750X-0.101250X0.123750X-0.101250X0.123750X0.101250X0*%
%ADD92RoundRect,0.095000X-0.040000X0.040000X-0.040000X-0.040000X0.040000X-0.040000X0.040000X0.040000X0*%
%ADD93R,0.270000X0.270000*%
%ADD94R,0.630000X0.459000*%
%ADD95RoundRect,0.090000X-0.202500X-0.090000X0.202500X-0.090000X0.202500X0.090000X-0.202500X0.090000X0*%
%ADD96RoundRect,0.033750X0.101250X0.123750X-0.101250X0.123750X-0.101250X-0.123750X0.101250X-0.123750X0*%
%ADD97RoundRect,0.095000X0.040000X0.040000X-0.040000X0.040000X-0.040000X-0.040000X0.040000X-0.040000X0*%
%ADD98R,0.459000X0.630000*%
%ADD99RoundRect,0.196875X0.196875X0.230625X-0.196875X0.230625X-0.196875X-0.230625X0.196875X-0.230625X0*%
%ADD100RoundRect,0.050625X0.050625X-0.247725X0.050625X0.247725X-0.050625X0.247725X-0.050625X-0.247725X0*%
%ADD101RoundRect,0.050625X0.050625X-0.202725X0.050625X0.202725X-0.050625X0.202725X-0.050625X-0.202725X0*%
%ADD102RoundRect,0.050625X0.202725X-0.050625X0.202725X0.050625X-0.202725X0.050625X-0.202725X-0.050625X0*%
%ADD103RoundRect,0.090000X0.090000X-0.202500X0.090000X0.202500X-0.090000X0.202500X-0.090000X-0.202500X0*%
%ADD104RoundRect,0.135000X0.461250X0.135000X-0.461250X0.135000X-0.461250X-0.135000X0.461250X-0.135000X0*%
%ADD105RoundRect,0.144000X0.396000X-0.216000X0.396000X0.216000X-0.396000X0.216000X-0.396000X-0.216000X0*%
%ADD106RoundRect,0.045000X0.135000X-0.146250X0.135000X0.146250X-0.135000X0.146250X-0.135000X-0.146250X0*%
%ADD107RoundRect,0.047813X0.143437X-0.222187X0.143437X0.222187X-0.143437X0.222187X-0.143437X-0.222187X0*%
%ADD108RoundRect,0.050625X-0.247725X-0.050625X0.247725X-0.050625X0.247725X0.050625X-0.247725X0.050625X0*%
%ADD109RoundRect,0.050625X-0.202725X-0.050625X0.202725X-0.050625X0.202725X0.050625X-0.202725X0.050625X0*%
%ADD110RoundRect,0.050625X-0.050625X-0.202725X0.050625X-0.202725X0.050625X0.202725X-0.050625X0.202725X0*%
%ADD111RoundRect,0.135000X0.517500X-0.135000X0.517500X0.135000X-0.517500X0.135000X-0.517500X-0.135000X0*%
%ADD112RoundRect,0.067500X0.585000X-0.067500X0.585000X0.067500X-0.585000X0.067500X-0.585000X-0.067500X0*%
%ADD113O,2.090000X1.100000*%
%ADD114O,1.640000X1.100000*%
%ADD115RoundRect,0.108000X0.792000X-0.162000X0.792000X0.162000X-0.792000X0.162000X-0.792000X-0.162000X0*%
%ADD116RoundRect,0.180000X0.180000X-0.270000X0.180000X0.270000X-0.180000X0.270000X-0.180000X-0.270000X0*%
%ADD117RoundRect,0.144000X-0.396000X0.216000X-0.396000X-0.216000X0.396000X-0.216000X0.396000X0.216000X0*%
%ADD118RoundRect,0.095000X0.040000X0.000010X-0.040000X0.000010X-0.040000X-0.000010X0.040000X-0.000010X0*%
%ADD119RoundRect,0.196875X-0.196875X-0.230625X0.196875X-0.230625X0.196875X0.230625X-0.196875X0.230625X0*%
%ADD120RoundRect,0.202500X0.202500X-0.202500X0.202500X0.202500X-0.202500X0.202500X-0.202500X-0.202500X0*%
%ADD121RoundRect,0.056250X0.315000X-0.056250X0.315000X0.056250X-0.315000X0.056250X-0.315000X-0.056250X0*%
%ADD122RoundRect,0.056250X0.056250X-0.315000X0.056250X0.315000X-0.056250X0.315000X-0.056250X-0.315000X0*%
%ADD123RoundRect,0.045000X0.146250X0.135000X-0.146250X0.135000X-0.146250X-0.135000X0.146250X-0.135000X0*%
%ADD124RoundRect,0.047813X0.222187X0.143437X-0.222187X0.143437X-0.222187X-0.143437X0.222187X-0.143437X0*%
%ADD125RoundRect,0.202500X-0.202500X-0.402500X0.202500X-0.402500X0.202500X0.402500X-0.202500X0.402500X0*%
%ADD126RoundRect,0.056250X-0.056250X-0.315000X0.056250X-0.315000X0.056250X0.315000X-0.056250X0.315000X0*%
%ADD127RoundRect,0.056250X-0.315000X-0.056250X0.315000X-0.056250X0.315000X0.056250X-0.315000X0.056250X0*%
%ADD128R,0.750000X0.650000*%
%ADD129RoundRect,0.056250X0.168750X0.056250X-0.168750X0.056250X-0.168750X-0.056250X0.168750X-0.056250X0*%
G04 APERTURE END LIST*
D10*
%TO.C,D6*%
X61820000Y-148438000D03*
X61820000Y-149238000D03*
D11*
X61600000Y-147363000D03*
X61600000Y-150313000D03*
%TD*%
D10*
%TO.C,D4*%
X61820000Y-139294000D03*
X61820000Y-140094000D03*
D11*
X61600000Y-138219000D03*
X61600000Y-141169000D03*
%TD*%
D10*
%TO.C,D8*%
X61820000Y-130150000D03*
X61820000Y-130950000D03*
D11*
X61600000Y-129075000D03*
X61600000Y-132025000D03*
%TD*%
D12*
%TO.C,D5*%
X61820000Y-144266000D03*
D13*
X61600000Y-145791000D03*
X61600000Y-142741000D03*
%TD*%
D12*
%TO.C,D2*%
X61820000Y-135122000D03*
D13*
X61600000Y-136647000D03*
X61600000Y-133597000D03*
%TD*%
D10*
%TO.C,D7*%
X61820000Y-117500000D03*
X61820000Y-118300000D03*
D11*
X61600000Y-116425000D03*
X61600000Y-119375000D03*
%TD*%
D14*
%TO.C,C1*%
X83400000Y-145655000D03*
X83400000Y-146345000D03*
%TD*%
%TO.C,C3*%
X84600000Y-145655000D03*
X84600000Y-146345000D03*
%TD*%
D15*
%TO.C,C5*%
X84200000Y-138745000D03*
X84200000Y-138055000D03*
%TD*%
%TO.C,C7*%
X94650000Y-142145000D03*
X94650000Y-141455000D03*
%TD*%
D16*
%TO.C,C8*%
X89405000Y-149350000D03*
X90095000Y-149350000D03*
%TD*%
%TO.C,C9*%
X86505000Y-149350000D03*
X87195000Y-149350000D03*
%TD*%
%TO.C,C10*%
X89455000Y-152800000D03*
X90145000Y-152800000D03*
%TD*%
D17*
%TO.C,C11*%
X90145000Y-151700000D03*
X89455000Y-151700000D03*
%TD*%
%TO.C,C12*%
X82045000Y-138700000D03*
X81355000Y-138700000D03*
%TD*%
D15*
%TO.C,C13*%
X80600000Y-137945000D03*
X80600000Y-137255000D03*
%TD*%
D16*
%TO.C,C14*%
X82755000Y-138700000D03*
X83445000Y-138700000D03*
%TD*%
D15*
%TO.C,C15*%
X82800000Y-137945000D03*
X82800000Y-137255000D03*
%TD*%
%TO.C,C16*%
X94650000Y-144945000D03*
X94650000Y-144255000D03*
%TD*%
D14*
%TO.C,C17*%
X93700000Y-151104999D03*
X93700000Y-151794999D03*
%TD*%
D15*
%TO.C,C18*%
X95800000Y-165145000D03*
X95800000Y-164455000D03*
%TD*%
D17*
%TO.C,C19*%
X88745000Y-160800000D03*
X88055000Y-160800000D03*
%TD*%
D15*
%TO.C,C20*%
X95900000Y-151794999D03*
X95900000Y-151104999D03*
%TD*%
D14*
%TO.C,C21*%
X94800000Y-164455000D03*
X94800000Y-165145000D03*
%TD*%
D18*
%TO.C,C22*%
X77356764Y-109497500D03*
X78316764Y-109497500D03*
%TD*%
D19*
%TO.C,C23*%
X72900092Y-112377500D03*
X72900092Y-113337500D03*
%TD*%
D16*
%TO.C,C24*%
X106830000Y-168275000D03*
X107520000Y-168275000D03*
%TD*%
%TO.C,C25*%
X87355000Y-147200000D03*
X88045000Y-147200000D03*
%TD*%
D15*
%TO.C,C26*%
X83624365Y-171670000D03*
X83624365Y-170980000D03*
%TD*%
%TO.C,C27*%
X91624365Y-171670000D03*
X91624365Y-170980000D03*
%TD*%
D16*
%TO.C,C28*%
X87355000Y-148100000D03*
X88045000Y-148100000D03*
%TD*%
D17*
%TO.C,C29*%
X88745000Y-159750000D03*
X88055000Y-159750000D03*
%TD*%
D15*
%TO.C,C30*%
X87624365Y-171670000D03*
X87624365Y-170980000D03*
%TD*%
D17*
%TO.C,C31*%
X87545000Y-162400000D03*
X86855000Y-162400000D03*
%TD*%
D15*
%TO.C,C34*%
X89700000Y-138345000D03*
X89700000Y-137655000D03*
%TD*%
%TO.C,C35*%
X88800000Y-138345000D03*
X88800000Y-137655000D03*
%TD*%
%TO.C,C36*%
X87900000Y-138345000D03*
X87900000Y-137655000D03*
%TD*%
%TO.C,C37*%
X87000000Y-138745000D03*
X87000000Y-138055000D03*
%TD*%
D17*
%TO.C,C41*%
X90495000Y-146850000D03*
X89805000Y-146850000D03*
%TD*%
D15*
%TO.C,C42*%
X91450000Y-138845000D03*
X91450000Y-138155000D03*
%TD*%
%TO.C,C46*%
X93650000Y-143195000D03*
X93650000Y-142505000D03*
%TD*%
D17*
%TO.C,C49*%
X92695000Y-141400000D03*
X92005000Y-141400000D03*
%TD*%
D16*
%TO.C,C50*%
X82755000Y-163250000D03*
X83445000Y-163250000D03*
%TD*%
D17*
%TO.C,C53*%
X77595000Y-168500000D03*
X76905000Y-168500000D03*
%TD*%
D16*
%TO.C,C55*%
X80905000Y-162050000D03*
X81595000Y-162050000D03*
%TD*%
%TO.C,C57*%
X80905000Y-161000000D03*
X81595000Y-161000000D03*
%TD*%
%TO.C,C58*%
X76105000Y-162900000D03*
X76795000Y-162900000D03*
%TD*%
D17*
%TO.C,C59*%
X82045000Y-158000000D03*
X81355000Y-158000000D03*
%TD*%
%TO.C,C60*%
X81595000Y-159950000D03*
X80905000Y-159950000D03*
%TD*%
D14*
%TO.C,C62*%
X75600000Y-157655000D03*
X75600000Y-158345000D03*
%TD*%
D17*
%TO.C,C63*%
X77795000Y-160800000D03*
X77105000Y-160800000D03*
%TD*%
D20*
%TO.C,C64*%
X71930000Y-160900000D03*
X70970000Y-160900000D03*
%TD*%
D17*
%TO.C,C65*%
X77795000Y-159750000D03*
X77105000Y-159750000D03*
%TD*%
D16*
%TO.C,C66*%
X77105000Y-161850000D03*
X77795000Y-161850000D03*
%TD*%
D15*
%TO.C,C67*%
X80700000Y-142495000D03*
X80700000Y-141805000D03*
%TD*%
%TO.C,C70*%
X81050000Y-141095000D03*
X81050000Y-140405000D03*
%TD*%
D17*
%TO.C,C71*%
X105345000Y-145000000D03*
X104655000Y-145000000D03*
%TD*%
%TO.C,C73*%
X108445000Y-145000000D03*
X107755000Y-145000000D03*
%TD*%
D16*
%TO.C,C75*%
X109755000Y-145000000D03*
X110445000Y-145000000D03*
%TD*%
%TO.C,C77*%
X106055000Y-136000000D03*
X106745000Y-136000000D03*
%TD*%
D15*
%TO.C,C79*%
X102900000Y-138645000D03*
X102900000Y-137955000D03*
%TD*%
%TO.C,C82*%
X102900000Y-140795000D03*
X102900000Y-140105000D03*
%TD*%
D17*
%TO.C,C83*%
X102945000Y-142100000D03*
X102255000Y-142100000D03*
%TD*%
D14*
%TO.C,C84*%
X99800000Y-157955000D03*
X99800000Y-158645000D03*
%TD*%
D17*
%TO.C,C85*%
X99795000Y-160900000D03*
X99105000Y-160900000D03*
%TD*%
D14*
%TO.C,C86*%
X101550000Y-165305000D03*
X101550000Y-165995000D03*
%TD*%
%TO.C,C87*%
X103550000Y-165305000D03*
X103550000Y-165995000D03*
%TD*%
%TO.C,C88*%
X105050000Y-165305000D03*
X105050000Y-165995000D03*
%TD*%
D15*
%TO.C,C89*%
X108800000Y-164045000D03*
X108800000Y-163355000D03*
%TD*%
%TO.C,C90*%
X108800000Y-161295000D03*
X108800000Y-160605000D03*
%TD*%
%TO.C,C92*%
X105950000Y-156295000D03*
X105950000Y-155605000D03*
%TD*%
%TO.C,C93*%
X105150000Y-156295000D03*
X105150000Y-155605000D03*
%TD*%
D17*
%TO.C,C94*%
X102495000Y-156300000D03*
X101805000Y-156300000D03*
%TD*%
%TO.C,C97*%
X102945000Y-143610000D03*
X102255000Y-143610000D03*
%TD*%
D14*
%TO.C,C98*%
X102900000Y-144355000D03*
X102900000Y-145045000D03*
%TD*%
D17*
%TO.C,C99*%
X99795000Y-159500000D03*
X99105000Y-159500000D03*
%TD*%
D14*
%TO.C,C100*%
X103900000Y-144955000D03*
X103900000Y-145645000D03*
%TD*%
D17*
%TO.C,C102*%
X99795000Y-160200000D03*
X99105000Y-160200000D03*
%TD*%
%TO.C,C104*%
X99795000Y-162000000D03*
X99105000Y-162000000D03*
%TD*%
D21*
%TO.C,C105*%
X89511538Y-115010000D03*
X87611538Y-115010000D03*
%TD*%
D16*
%TO.C,C106*%
X108805000Y-159100000D03*
X109495000Y-159100000D03*
%TD*%
D17*
%TO.C,C111*%
X99795000Y-162700000D03*
X99105000Y-162700000D03*
%TD*%
D22*
%TO.C,C113*%
X115248950Y-163917128D03*
X115248950Y-162957128D03*
%TD*%
D17*
%TO.C,C115*%
X111345000Y-161750000D03*
X110655000Y-161750000D03*
%TD*%
D16*
%TO.C,C116*%
X110655000Y-161050000D03*
X111345000Y-161050000D03*
%TD*%
D18*
%TO.C,C118*%
X160546788Y-143098232D03*
X161506788Y-143098232D03*
%TD*%
D20*
%TO.C,C119*%
X112696372Y-166566034D03*
X111736372Y-166566034D03*
%TD*%
%TO.C,C120*%
X112696372Y-168173378D03*
X111736372Y-168173378D03*
%TD*%
D19*
%TO.C,C121*%
X116000000Y-171261738D03*
X116000000Y-172221738D03*
%TD*%
%TO.C,C122*%
X117927856Y-171261738D03*
X117927856Y-172221738D03*
%TD*%
D14*
%TO.C,C123*%
X111900000Y-140655000D03*
X111900000Y-141345000D03*
%TD*%
%TO.C,C125*%
X147025000Y-114980000D03*
X147025000Y-115670000D03*
%TD*%
D23*
%TO.C,C126*%
X143225000Y-108575000D03*
X143225000Y-106675000D03*
%TD*%
D21*
%TO.C,C127*%
X143595989Y-111211800D03*
X141695989Y-111211800D03*
%TD*%
D22*
%TO.C,C128*%
X147935395Y-133125714D03*
X147935395Y-132165714D03*
%TD*%
D18*
%TO.C,C129*%
X157355000Y-138296409D03*
X158315000Y-138296409D03*
%TD*%
D19*
%TO.C,C130*%
X148733342Y-150305932D03*
X148733342Y-151265932D03*
%TD*%
D20*
%TO.C,C131*%
X139821996Y-144300000D03*
X138861996Y-144300000D03*
%TD*%
%TO.C,C132*%
X139805000Y-139175000D03*
X138845000Y-139175000D03*
%TD*%
D22*
%TO.C,C133*%
X146073519Y-133125714D03*
X146073519Y-132165714D03*
%TD*%
D19*
%TO.C,C134*%
X150595218Y-150305932D03*
X150595218Y-151265932D03*
%TD*%
D18*
%TO.C,C135*%
X157355000Y-144965607D03*
X158315000Y-144965607D03*
%TD*%
%TO.C,C136*%
X157355000Y-146566215D03*
X158315000Y-146566215D03*
%TD*%
%TO.C,C137*%
X157355000Y-136695802D03*
X158315000Y-136695802D03*
%TD*%
D19*
%TO.C,C138*%
X146950000Y-150245000D03*
X146950000Y-151205000D03*
%TD*%
D24*
%TO.C,C143*%
X157078864Y-118831800D03*
X158978864Y-118831800D03*
%TD*%
D20*
%TO.C,C144*%
X157781793Y-159365970D03*
X156821793Y-159365970D03*
%TD*%
D25*
%TO.C,C145*%
X156600000Y-106750000D03*
X156600000Y-108650000D03*
%TD*%
D21*
%TO.C,C146*%
X158337911Y-111529300D03*
X156437911Y-111529300D03*
%TD*%
D22*
%TO.C,C157*%
X152457094Y-128590659D03*
X152457094Y-127630659D03*
%TD*%
%TO.C,C158*%
X150329235Y-128590659D03*
X150329235Y-127630659D03*
%TD*%
D15*
%TO.C,C160*%
X76300000Y-154145000D03*
X76300000Y-153455000D03*
%TD*%
D17*
%TO.C,C161*%
X79895000Y-158250000D03*
X79205000Y-158250000D03*
%TD*%
D18*
%TO.C,C164*%
X160546788Y-140697320D03*
X161506788Y-140697320D03*
%TD*%
D19*
%TO.C,C171*%
X69500000Y-168720000D03*
X69500000Y-169680000D03*
%TD*%
D26*
%TO.C,D1*%
X66500000Y-161010000D03*
X66500000Y-161390000D03*
%TD*%
D27*
%TO.C,D3*%
X172900000Y-164870000D03*
X172900000Y-165530000D03*
%TD*%
D28*
%TO.C,D9*%
X175170000Y-151500000D03*
X175830000Y-151500000D03*
%TD*%
D16*
%TO.C,L1*%
X85655000Y-145700000D03*
X86345000Y-145700000D03*
%TD*%
D29*
%TO.C,L2*%
X90450000Y-139750000D03*
X88650000Y-139750000D03*
%TD*%
D14*
%TO.C,L3*%
X88950000Y-141655000D03*
X88950000Y-142345000D03*
%TD*%
D15*
%TO.C,L7*%
X98400000Y-160195000D03*
X98400000Y-159505000D03*
%TD*%
%TO.C,L9*%
X98400000Y-162695000D03*
X98400000Y-162005000D03*
%TD*%
D30*
%TO.C,L10*%
X148275000Y-109550000D03*
X145475000Y-109550000D03*
%TD*%
%TO.C,L11*%
X154500000Y-109225000D03*
X151700000Y-109225000D03*
%TD*%
D31*
%TO.C,L13*%
X69450000Y-162537500D03*
X69450000Y-160962500D03*
%TD*%
D32*
%TO.C,Q3*%
X84383913Y-106770000D03*
X82483913Y-106770000D03*
X83433913Y-109045000D03*
%TD*%
D33*
%TO.C,Q5*%
X170612500Y-111950000D03*
X170612500Y-113850000D03*
X172887500Y-112900000D03*
%TD*%
D16*
%TO.C,R1*%
X81355000Y-138000000D03*
X82045000Y-138000000D03*
%TD*%
D17*
%TO.C,R2*%
X82045000Y-137300000D03*
X81355000Y-137300000D03*
%TD*%
D15*
%TO.C,R3*%
X83500000Y-137945000D03*
X83500000Y-137255000D03*
%TD*%
D14*
%TO.C,R4*%
X85400000Y-138055000D03*
X85400000Y-138745000D03*
%TD*%
D34*
%TO.C,R5*%
X90550000Y-138459999D03*
X90550000Y-137440001D03*
%TD*%
D35*
%TO.C,R7*%
X66700000Y-129990000D03*
X66700000Y-131010000D03*
%TD*%
D14*
%TO.C,R8*%
X99400000Y-147605000D03*
X99400000Y-148295000D03*
%TD*%
%TO.C,R9*%
X100400000Y-147605000D03*
X100400000Y-148295000D03*
%TD*%
%TO.C,R10*%
X102700000Y-149205000D03*
X102700000Y-149895000D03*
%TD*%
D17*
%TO.C,R11*%
X88644150Y-107863200D03*
X87954150Y-107863200D03*
%TD*%
D14*
%TO.C,R13*%
X103700000Y-149205000D03*
X103700000Y-149895000D03*
%TD*%
D16*
%TO.C,R14*%
X103541000Y-151638000D03*
X104231000Y-151638000D03*
%TD*%
D17*
%TO.C,R15*%
X102834000Y-151638000D03*
X102144000Y-151638000D03*
%TD*%
D16*
%TO.C,R16*%
X100239000Y-149987000D03*
X100929000Y-149987000D03*
%TD*%
D17*
%TO.C,R17*%
X99532000Y-149987000D03*
X98842000Y-149987000D03*
%TD*%
D16*
%TO.C,R18*%
X62955000Y-133500000D03*
X63645000Y-133500000D03*
%TD*%
D15*
%TO.C,R19*%
X68400000Y-118245000D03*
X68400000Y-117555000D03*
%TD*%
D17*
%TO.C,R25*%
X108545000Y-165300000D03*
X107855000Y-165300000D03*
%TD*%
D15*
%TO.C,R26*%
X107150000Y-165995000D03*
X107150000Y-165305000D03*
%TD*%
D36*
%TO.C,R27*%
X120510000Y-166900000D03*
X119490000Y-166900000D03*
%TD*%
%TO.C,R28*%
X120485000Y-167925000D03*
X119465000Y-167925000D03*
%TD*%
D15*
%TO.C,R30*%
X67800000Y-130845000D03*
X67800000Y-130155000D03*
%TD*%
%TO.C,R31*%
X121032544Y-165063691D03*
X121032544Y-164373691D03*
%TD*%
D16*
%TO.C,R33*%
X134349966Y-168225000D03*
X135039966Y-168225000D03*
%TD*%
D17*
%TO.C,R34*%
X123066997Y-170426503D03*
X122376997Y-170426503D03*
%TD*%
D35*
%TO.C,R36*%
X75150000Y-168090000D03*
X75150000Y-169110000D03*
%TD*%
D37*
%TO.C,R37*%
X164120315Y-132018642D03*
X165140315Y-132018642D03*
%TD*%
D35*
%TO.C,R46*%
X144725000Y-114490000D03*
X144725000Y-115510000D03*
%TD*%
%TO.C,R47*%
X146025000Y-114490000D03*
X146025000Y-115510000D03*
%TD*%
D36*
%TO.C,R48*%
X161810000Y-144850000D03*
X160790000Y-144850000D03*
%TD*%
D34*
%TO.C,R49*%
X67400000Y-118410000D03*
X67400000Y-117390000D03*
%TD*%
D17*
%TO.C,R51*%
X147145000Y-116700000D03*
X146455000Y-116700000D03*
%TD*%
D34*
%TO.C,R52*%
X148145997Y-118756800D03*
X148145997Y-117736800D03*
%TD*%
D14*
%TO.C,R54*%
X149750000Y-109980000D03*
X149750000Y-110670000D03*
%TD*%
D37*
%TO.C,R55*%
X158671723Y-113626800D03*
X159691723Y-113626800D03*
%TD*%
%TO.C,R56*%
X156107911Y-113944300D03*
X157127911Y-113944300D03*
%TD*%
D34*
%TO.C,R59*%
X147750000Y-153835000D03*
X147750000Y-152815000D03*
%TD*%
D37*
%TO.C,R62*%
X144641000Y-120189099D03*
X145661000Y-120189099D03*
%TD*%
D36*
%TO.C,R63*%
X143841837Y-127925369D03*
X142821837Y-127925369D03*
%TD*%
D34*
%TO.C,R64*%
X139414067Y-128775673D03*
X139414067Y-127755673D03*
%TD*%
D37*
%TO.C,R65*%
X140693979Y-120189099D03*
X141713979Y-120189099D03*
%TD*%
D34*
%TO.C,R66*%
X145797642Y-128775673D03*
X145797642Y-127755673D03*
%TD*%
%TO.C,R67*%
X138104050Y-150475628D03*
X138104050Y-149455628D03*
%TD*%
D36*
%TO.C,R68*%
X138010120Y-152293004D03*
X136990120Y-152293004D03*
%TD*%
D15*
%TO.C,R69*%
X154900000Y-130520000D03*
X154900000Y-129830000D03*
%TD*%
D16*
%TO.C,R72*%
X62955000Y-139300000D03*
X63645000Y-139300000D03*
%TD*%
D37*
%TO.C,R73*%
X62790000Y-142700000D03*
X63810000Y-142700000D03*
%TD*%
D16*
%TO.C,R74*%
X62955000Y-147300000D03*
X63645000Y-147300000D03*
%TD*%
D37*
%TO.C,R75*%
X62790000Y-117700000D03*
X63810000Y-117700000D03*
%TD*%
D16*
%TO.C,R76*%
X62955000Y-130100000D03*
X63645000Y-130100000D03*
%TD*%
D36*
%TO.C,R85*%
X122535000Y-166899706D03*
X121515000Y-166899706D03*
%TD*%
D34*
%TO.C,R93*%
X146575000Y-153885000D03*
X146575000Y-152865000D03*
%TD*%
%TO.C,R104*%
X117134184Y-160712441D03*
X117134184Y-159692441D03*
%TD*%
D35*
%TO.C,R105*%
X112275000Y-163640000D03*
X112275000Y-164660000D03*
%TD*%
D38*
%TO.C,T1*%
X86495000Y-148050000D03*
X86495000Y-147400000D03*
X86495000Y-146750000D03*
X85505000Y-146750000D03*
X85505000Y-147400000D03*
X85505000Y-148050000D03*
%TD*%
D39*
%TO.C,T2*%
X92650000Y-142205000D03*
X92000000Y-142205000D03*
X91350000Y-142205000D03*
X91350000Y-143195000D03*
X92000000Y-143195000D03*
X92650000Y-143195000D03*
%TD*%
D40*
%TO.C,T3*%
X97460000Y-159650000D03*
X97460000Y-160050000D03*
X97840000Y-160050000D03*
X97840000Y-159650000D03*
%TD*%
%TO.C,T4*%
X97460000Y-162150000D03*
X97460000Y-162550000D03*
X97840000Y-162550000D03*
X97840000Y-162150000D03*
%TD*%
D41*
%TO.C,U1*%
X88500000Y-152700000D03*
X88500000Y-152200000D03*
X88500000Y-151700000D03*
D42*
X88000000Y-151200000D03*
X87500000Y-151200000D03*
X87000000Y-151200000D03*
D41*
X86500000Y-151700000D03*
X86500000Y-152200000D03*
X86500000Y-152700000D03*
D42*
X87000000Y-153200000D03*
X87500000Y-153200000D03*
X88000000Y-153200000D03*
D43*
X87500000Y-152200000D03*
%TD*%
D42*
%TO.C,U2*%
X94800000Y-163500000D03*
X95300000Y-163500000D03*
X95800000Y-163500000D03*
D41*
X96300000Y-163000000D03*
X96300000Y-162500000D03*
X96300000Y-162000000D03*
D42*
X95800000Y-161500000D03*
X95300000Y-161500000D03*
X94800000Y-161500000D03*
D41*
X94300000Y-162000000D03*
X94300000Y-162500000D03*
X94300000Y-163000000D03*
D43*
X95300000Y-162500000D03*
%TD*%
D44*
%TO.C,U4*%
X85925000Y-140775000D03*
D45*
X85000000Y-140775000D03*
X84000000Y-140775000D03*
D46*
X83075000Y-140775000D03*
D47*
X85925000Y-141700000D03*
D48*
X85000000Y-141700000D03*
X84000000Y-141700000D03*
D49*
X83075000Y-141700000D03*
D47*
X85925000Y-142700000D03*
D48*
X85000000Y-142700000D03*
X84000000Y-142700000D03*
D49*
X83075000Y-142700000D03*
D50*
X85925000Y-143625000D03*
D51*
X85000000Y-143625000D03*
X84000000Y-143625000D03*
D52*
X83075000Y-143625000D03*
D53*
X86250000Y-139750000D03*
X85750000Y-139750000D03*
X85250000Y-139750000D03*
X84750000Y-139750000D03*
X84250000Y-139750000D03*
X83750000Y-139750000D03*
X83250000Y-139750000D03*
X82750000Y-139750000D03*
D54*
X82050000Y-140450000D03*
X82050000Y-140950000D03*
X82050000Y-141450000D03*
X82050000Y-141950000D03*
X82050000Y-142450000D03*
X82050000Y-142950000D03*
X82050000Y-143450000D03*
X82050000Y-143950000D03*
D53*
X82750000Y-144650000D03*
X83250000Y-144650000D03*
X83750000Y-144650000D03*
X84250000Y-144650000D03*
X84750000Y-144650000D03*
X85250000Y-144650000D03*
X85750000Y-144650000D03*
X86250000Y-144650000D03*
D54*
X86950000Y-143950000D03*
X86950000Y-143450000D03*
X86950000Y-142950000D03*
X86950000Y-142450000D03*
X86950000Y-141950000D03*
X86950000Y-141450000D03*
X86950000Y-140950000D03*
X86950000Y-140450000D03*
%TD*%
D55*
%TO.C,U5*%
X95050000Y-143600000D03*
X95050000Y-143200000D03*
X95050000Y-142800000D03*
X94650000Y-142800000D03*
X94650000Y-143200000D03*
X94650000Y-143600000D03*
%TD*%
D56*
%TO.C,U6*%
X87900000Y-149500000D03*
X88300000Y-149500000D03*
X88700000Y-149500000D03*
X88700000Y-149100000D03*
X88300000Y-149100000D03*
X87900000Y-149100000D03*
%TD*%
D57*
%TO.C,U7*%
X95200000Y-150650000D03*
X94800000Y-150650001D03*
X94400000Y-150650000D03*
X94400000Y-151050000D03*
X94800000Y-151049999D03*
X95200000Y-151050000D03*
%TD*%
%TO.C,U9*%
X87400000Y-160500000D03*
X87000000Y-160500000D03*
X86600000Y-160500000D03*
X86600000Y-160900000D03*
X86600000Y-161300000D03*
X87000000Y-161300000D03*
X87400000Y-161300000D03*
X87400000Y-160900000D03*
X87000000Y-160900000D03*
%TD*%
D58*
%TO.C,U10*%
X94574365Y-171675000D03*
X94574365Y-171025000D03*
X94574365Y-170375000D03*
X92674365Y-170375000D03*
X92674365Y-171675000D03*
%TD*%
%TO.C,U11*%
X86574365Y-171675000D03*
X86574365Y-171025000D03*
X86574365Y-170375000D03*
X84674365Y-170375000D03*
X84674365Y-171675000D03*
%TD*%
D56*
%TO.C,U12*%
X82250000Y-161300000D03*
X82650000Y-161300000D03*
X83050000Y-161300000D03*
X83050000Y-160900000D03*
X83050000Y-160500000D03*
X82650000Y-160500000D03*
X82250000Y-160500000D03*
X82250000Y-160900000D03*
X82650000Y-160900000D03*
%TD*%
D57*
%TO.C,U14*%
X76450000Y-160500000D03*
X76050000Y-160500000D03*
X75650000Y-160500000D03*
X75650000Y-160900000D03*
X75650000Y-161300000D03*
X76050000Y-161300000D03*
X76450000Y-161300000D03*
X76450000Y-160900000D03*
X76050000Y-160900000D03*
%TD*%
D59*
%TO.C,U15*%
X169851500Y-122826000D03*
X169851500Y-123326000D03*
D60*
X169889000Y-123826000D03*
D59*
X169851500Y-124326000D03*
X169851500Y-124826000D03*
X170626500Y-124826000D03*
X170626500Y-124326000D03*
D61*
X170651500Y-123826000D03*
D59*
X170626500Y-123326000D03*
X170626500Y-122826000D03*
%TD*%
D62*
%TO.C,U17*%
X102387500Y-158887500D03*
X102387500Y-160162500D03*
X102387500Y-161437500D03*
X102387500Y-162712500D03*
X103662500Y-158887500D03*
X103662500Y-160162500D03*
X103662500Y-161437500D03*
X103662500Y-162712500D03*
X104937500Y-158887500D03*
X104937500Y-160162500D03*
X104937500Y-161437500D03*
X104937500Y-162712500D03*
X106212500Y-158887500D03*
X106212500Y-160162500D03*
X106212500Y-161437500D03*
X106212500Y-162712500D03*
D63*
X100862500Y-158050000D03*
X100862500Y-158550000D03*
X100862500Y-159050000D03*
X100862500Y-159550000D03*
X100862500Y-160050000D03*
X100862500Y-160550000D03*
X100862500Y-161050000D03*
X100862500Y-161550000D03*
X100862500Y-162050000D03*
X100862500Y-162550000D03*
X100862500Y-163050000D03*
X100862500Y-163550000D03*
D64*
X101550000Y-164237500D03*
X102050000Y-164237500D03*
X102550000Y-164237500D03*
X103050000Y-164237500D03*
X103550000Y-164237500D03*
X104050000Y-164237500D03*
X104550000Y-164237500D03*
X105050000Y-164237500D03*
X105550000Y-164237500D03*
X106050000Y-164237500D03*
X106550000Y-164237500D03*
X107050000Y-164237500D03*
D63*
X107737500Y-163550000D03*
X107737500Y-163050000D03*
X107737500Y-162550000D03*
X107737500Y-162050000D03*
X107737500Y-161550000D03*
X107737500Y-161050000D03*
X107737500Y-160550000D03*
X107737500Y-160050000D03*
X107737500Y-159550000D03*
X107737500Y-159050000D03*
X107737500Y-158550000D03*
X107737500Y-158050000D03*
D64*
X107050000Y-157362500D03*
X106550000Y-157362500D03*
X106050000Y-157362500D03*
X105550000Y-157362500D03*
X105050000Y-157362500D03*
X104550000Y-157362500D03*
X104050000Y-157362500D03*
X103550000Y-157362500D03*
X103050000Y-157362500D03*
X102550000Y-157362500D03*
X102050000Y-157362500D03*
X101550000Y-157362500D03*
%TD*%
D65*
%TO.C,U18*%
X105600000Y-142300000D03*
X106800000Y-142300000D03*
X108000000Y-142300000D03*
X109200000Y-142300000D03*
X105600000Y-141100000D03*
X106800000Y-141100000D03*
X108000000Y-141100000D03*
X109200000Y-141100000D03*
X105600000Y-139900000D03*
X106800000Y-139900000D03*
X108000000Y-139900000D03*
X109200000Y-139900000D03*
X105600000Y-138700000D03*
X106800000Y-138700000D03*
X108000000Y-138700000D03*
X109200000Y-138700000D03*
D66*
X104650000Y-143950000D03*
X105150000Y-143950000D03*
X105650000Y-143950000D03*
X106150000Y-143950000D03*
X106650000Y-143950000D03*
X107150000Y-143950000D03*
X107650000Y-143950000D03*
X108150000Y-143950000D03*
X108650000Y-143950000D03*
X109150000Y-143950000D03*
X109650000Y-143950000D03*
X110150000Y-143950000D03*
D67*
X110850000Y-143250000D03*
X110850000Y-142750000D03*
X110850000Y-142250000D03*
X110850000Y-141750000D03*
X110850000Y-141250000D03*
X110850000Y-140750000D03*
X110850000Y-140250000D03*
X110850000Y-139750000D03*
X110850000Y-139250000D03*
X110850000Y-138750000D03*
X110850000Y-138250000D03*
X110850000Y-137750000D03*
D66*
X110150000Y-137050000D03*
X109650000Y-137050000D03*
X109150000Y-137050000D03*
X108650000Y-137050000D03*
X108150000Y-137050000D03*
X107650000Y-137050000D03*
X107150000Y-137050000D03*
X106650000Y-137050000D03*
X106150000Y-137050000D03*
X105650000Y-137050000D03*
X105150000Y-137050000D03*
X104650000Y-137050000D03*
D67*
X103950000Y-137750000D03*
X103950000Y-138250000D03*
X103950000Y-138750000D03*
X103950000Y-139250000D03*
X103950000Y-139750000D03*
X103950000Y-140250000D03*
X103950000Y-140750000D03*
X103950000Y-141250000D03*
X103950000Y-141750000D03*
X103950000Y-142250000D03*
X103950000Y-142750000D03*
X103950000Y-143250000D03*
%TD*%
D68*
%TO.C,U19*%
X116992388Y-168315722D03*
X116992388Y-166965722D03*
X115642388Y-168315722D03*
X115642388Y-166965722D03*
D69*
X118267388Y-168640722D03*
X118267388Y-168140722D03*
X118267388Y-167640722D03*
X118267388Y-167140722D03*
X118267388Y-166640722D03*
D70*
X117317388Y-165690722D03*
X116817388Y-165690722D03*
X116317388Y-165690722D03*
X115817388Y-165690722D03*
X115317388Y-165690722D03*
D69*
X114367388Y-166640722D03*
X114367388Y-167140722D03*
X114367388Y-167640722D03*
X114367388Y-168140722D03*
X114367388Y-168640722D03*
D70*
X115317388Y-169590722D03*
X115817388Y-169590722D03*
X116317388Y-169590722D03*
X116817388Y-169590722D03*
X117317388Y-169590722D03*
%TD*%
D71*
%TO.C,U20*%
X165693222Y-157497130D03*
X165693222Y-156227130D03*
X165693222Y-154957130D03*
X165693222Y-153687130D03*
X158518222Y-153687130D03*
X158518222Y-154957130D03*
X158518222Y-156227130D03*
X158518222Y-157497130D03*
%TD*%
D72*
%TO.C,U21*%
X149146473Y-115929300D03*
D73*
X149146473Y-115644300D03*
D72*
X149646473Y-115929300D03*
D73*
X149646473Y-115644300D03*
D72*
X150146473Y-115929300D03*
D73*
X150146473Y-115644300D03*
D72*
X150646473Y-115929300D03*
D73*
X150646473Y-115644300D03*
D72*
X151146473Y-115929300D03*
D73*
X151146473Y-115644300D03*
X151146473Y-112694300D03*
D72*
X151146473Y-112409300D03*
D73*
X150646473Y-112694300D03*
D72*
X150646473Y-112409300D03*
D73*
X150146473Y-112694300D03*
D72*
X150146473Y-112409300D03*
D73*
X149646473Y-112694300D03*
D72*
X149646473Y-112409300D03*
D73*
X149146473Y-112694300D03*
D72*
X149146473Y-112409300D03*
D74*
X149511473Y-114619300D03*
X150781473Y-114619300D03*
D75*
X148546473Y-114419300D03*
X151746473Y-114419300D03*
X148546473Y-113919300D03*
X151746473Y-113919300D03*
D74*
X149511473Y-113719300D03*
X150781473Y-113719300D03*
%TD*%
D76*
%TO.C,U23*%
X153725000Y-136325000D03*
X153725000Y-137125000D03*
X153725000Y-137925000D03*
X153725000Y-138725000D03*
X153725000Y-139525000D03*
X153725000Y-140325000D03*
X153725000Y-141125000D03*
X153725000Y-141925000D03*
X153725000Y-142725000D03*
X153725000Y-143525000D03*
X153725000Y-144325000D03*
X153725000Y-145125000D03*
X153725000Y-145925000D03*
X153725000Y-146725000D03*
X152925000Y-136325000D03*
X152925000Y-137125000D03*
X152925000Y-137925000D03*
X152925000Y-138725000D03*
X152925000Y-139525000D03*
X152925000Y-140325000D03*
X152925000Y-141125000D03*
X152925000Y-141925000D03*
X152925000Y-142725000D03*
X152925000Y-143525000D03*
X152925000Y-144325000D03*
X152925000Y-145125000D03*
X152925000Y-145925000D03*
X152925000Y-146725000D03*
X152125000Y-136325000D03*
X152125000Y-137125000D03*
X152125000Y-137925000D03*
X152124999Y-138725000D03*
X152125000Y-139525000D03*
X152125000Y-140324999D03*
X152125000Y-141125000D03*
X152125000Y-141925000D03*
X152125000Y-142725001D03*
X152125000Y-143525000D03*
X152124999Y-144325000D03*
X152125000Y-145125000D03*
X152125000Y-145925000D03*
X152125000Y-146725000D03*
X151325000Y-136325000D03*
X151325000Y-137125000D03*
X151325000Y-137925001D03*
X151325000Y-138725000D03*
X151325000Y-139524999D03*
X151325000Y-140325000D03*
X151325000Y-141125000D03*
X151325000Y-141925000D03*
X151325000Y-142725000D03*
X151325000Y-143525001D03*
X151325000Y-144325000D03*
X151325000Y-145124999D03*
X151325000Y-145925000D03*
X151325000Y-146725000D03*
X150525000Y-136325000D03*
X150525000Y-137125000D03*
X150525000Y-137925000D03*
X150525001Y-138725000D03*
X150525000Y-139525000D03*
X150525000Y-140324999D03*
X150525000Y-141125000D03*
X150525000Y-141925000D03*
X150525000Y-142725001D03*
X150525000Y-143525000D03*
X150525001Y-144325000D03*
X150525000Y-145125000D03*
X150525000Y-145925000D03*
X150525000Y-146725000D03*
X149725000Y-136325000D03*
X149725000Y-137125000D03*
X149725001Y-137925000D03*
X149725000Y-138725000D03*
X149725001Y-139525000D03*
X149725001Y-143525000D03*
X149725000Y-144325000D03*
X149725001Y-145125000D03*
X149725000Y-145925000D03*
X149725000Y-146725000D03*
X148925000Y-136325000D03*
X148925000Y-137125000D03*
X148925000Y-137925000D03*
X148925000Y-138725000D03*
X148925000Y-139525000D03*
X148925000Y-143525000D03*
X148925000Y-144325000D03*
X148925000Y-145125000D03*
X148925000Y-145925000D03*
X148925000Y-146725000D03*
X148125000Y-136325000D03*
X148125000Y-137125000D03*
X148125000Y-137925000D03*
X148125000Y-138725000D03*
X148125000Y-139525000D03*
X148125000Y-143525000D03*
X148125000Y-144325000D03*
X148125000Y-145125000D03*
X148125000Y-145925000D03*
X148125000Y-146725000D03*
X147325000Y-136325000D03*
X147325000Y-137125000D03*
X147324999Y-137925000D03*
X147325000Y-138725000D03*
X147324999Y-139525000D03*
X147324999Y-143525000D03*
X147325000Y-144325000D03*
X147324999Y-145125000D03*
X147325000Y-145925000D03*
X147325000Y-146725000D03*
X146525000Y-136325000D03*
X146525000Y-137125000D03*
X146525000Y-137925000D03*
X146524999Y-138725000D03*
X146525000Y-139525000D03*
X146525000Y-140324999D03*
X146525000Y-141125000D03*
X146525000Y-141925000D03*
X146525000Y-142725001D03*
X146525000Y-143525000D03*
X146524999Y-144325000D03*
X146525000Y-145125000D03*
X146525000Y-145925000D03*
X146525000Y-146725000D03*
X145725000Y-136325000D03*
X145725000Y-137125000D03*
X145725000Y-137925001D03*
X145725000Y-138725000D03*
X145725000Y-139524999D03*
X145725000Y-140325000D03*
X145725000Y-141125000D03*
X145725000Y-141925000D03*
X145725000Y-142725000D03*
X145725000Y-143525001D03*
X145725000Y-144325000D03*
X145725000Y-145124999D03*
X145725000Y-145925000D03*
X145725000Y-146725000D03*
X144925000Y-136325000D03*
X144925000Y-137125000D03*
X144925000Y-137925000D03*
X144925001Y-138725000D03*
X144925000Y-139525000D03*
X144925000Y-140324999D03*
X144925000Y-141125000D03*
X144925000Y-141925000D03*
X144925000Y-142725001D03*
X144925000Y-143525000D03*
X144925001Y-144325000D03*
X144925000Y-145125000D03*
X144925000Y-145925000D03*
X144925000Y-146725000D03*
X144125000Y-136325000D03*
X144125000Y-137125000D03*
X144125000Y-137925000D03*
X144125000Y-138725000D03*
X144125000Y-139525000D03*
X144125000Y-140325000D03*
X144125000Y-141125000D03*
X144125000Y-141925000D03*
X144125000Y-142725000D03*
X144125000Y-143525000D03*
X144125000Y-144325000D03*
X144125000Y-145125000D03*
X144125000Y-145925000D03*
X144125000Y-146725000D03*
X143325000Y-136325000D03*
X143325000Y-137125000D03*
X143325000Y-137925000D03*
X143325000Y-138725000D03*
X143325000Y-139525000D03*
X143325000Y-140325000D03*
X143325000Y-141125000D03*
X143325000Y-141925000D03*
X143325000Y-142725000D03*
X143325000Y-143525000D03*
X143325000Y-144325000D03*
X143325000Y-145125000D03*
X143325000Y-145925000D03*
X143325000Y-146725000D03*
%TD*%
D77*
%TO.C,X2*%
X152537271Y-130955714D03*
X150337271Y-130955714D03*
X150337271Y-132655714D03*
X152537271Y-132655714D03*
%TD*%
D78*
%TO.C,X3*%
X158075000Y-140575000D03*
X158075000Y-143075000D03*
%TD*%
D17*
%TO.C,R122*%
X102945000Y-142800000D03*
X102255000Y-142800000D03*
%TD*%
%TO.C,R133*%
X76145000Y-146200000D03*
X75455000Y-146200000D03*
%TD*%
%TO.C,L32*%
X82645000Y-165450000D03*
X81955000Y-165450000D03*
%TD*%
D15*
%TO.C,R83*%
X168251956Y-107958200D03*
X168251956Y-107268200D03*
%TD*%
D18*
%TO.C,C199*%
X127541919Y-167101816D03*
X128501919Y-167101816D03*
%TD*%
D16*
%TO.C,R102*%
X110155000Y-149700000D03*
X110845000Y-149700000D03*
%TD*%
D79*
%TO.C,D12*%
X153927933Y-116121800D03*
X156827933Y-116121800D03*
%TD*%
D20*
%TO.C,C124*%
X63780000Y-145900000D03*
X62820000Y-145900000D03*
%TD*%
D15*
%TO.C,R94*%
X103425000Y-172170000D03*
X103425000Y-171480000D03*
%TD*%
D16*
%TO.C,C203*%
X89855000Y-144450000D03*
X90545000Y-144450000D03*
%TD*%
D80*
%TO.C,Q1*%
X73937500Y-163600000D03*
X73937500Y-164100000D03*
X73937500Y-164600000D03*
X75362500Y-164600000D03*
X75362500Y-164100000D03*
X75362500Y-163600000D03*
%TD*%
D37*
%TO.C,R50*%
X62790000Y-116700000D03*
X63810000Y-116700000D03*
%TD*%
D15*
%TO.C,C114*%
X90350000Y-143045000D03*
X90350000Y-142355000D03*
%TD*%
D81*
%TO.C,FB8*%
X107865183Y-110619486D03*
X107865183Y-112194486D03*
%TD*%
D82*
%TO.C,U31*%
X124071997Y-158582441D03*
X123421997Y-158582441D03*
X122771997Y-158582441D03*
X122771997Y-160482441D03*
X123421997Y-160482441D03*
X124071997Y-160482441D03*
%TD*%
D14*
%TO.C,R136*%
X76850000Y-138505000D03*
X76850000Y-139195000D03*
%TD*%
D58*
%TO.C,U39*%
X98974365Y-171675000D03*
X98974365Y-171025000D03*
X98974365Y-170375000D03*
X97074365Y-170375000D03*
X97074365Y-171675000D03*
%TD*%
D83*
%TO.C,U16*%
X115937500Y-120062500D03*
X115937500Y-118787500D03*
X115937500Y-117512500D03*
X115937500Y-116237500D03*
X114662500Y-120062500D03*
X114662500Y-118787500D03*
X114662500Y-117512500D03*
X114662500Y-116237500D03*
X113387500Y-120062500D03*
X113387500Y-118787500D03*
X113387500Y-117512500D03*
X113387500Y-116237500D03*
X112112500Y-120062500D03*
X112112500Y-118787500D03*
X112112500Y-117512500D03*
X112112500Y-116237500D03*
D84*
X117462500Y-120900000D03*
X117462500Y-120400000D03*
X117462500Y-119900000D03*
X117462500Y-119400000D03*
X117462500Y-118900000D03*
X117462500Y-118400000D03*
X117462500Y-117900000D03*
X117462500Y-117400000D03*
X117462500Y-116900000D03*
X117462500Y-116400000D03*
X117462500Y-115900000D03*
X117462500Y-115400000D03*
D85*
X116775000Y-114712500D03*
X116275000Y-114712500D03*
X115775000Y-114712500D03*
X115275000Y-114712500D03*
X114775000Y-114712500D03*
X114275000Y-114712500D03*
X113775000Y-114712500D03*
X113275000Y-114712500D03*
X112775000Y-114712500D03*
X112275000Y-114712500D03*
X111775000Y-114712500D03*
X111275000Y-114712500D03*
D84*
X110587500Y-115400000D03*
X110587500Y-115900000D03*
X110587500Y-116400000D03*
X110587500Y-116900000D03*
X110587500Y-117400000D03*
X110587500Y-117900000D03*
X110587500Y-118400000D03*
X110587500Y-118900000D03*
X110587500Y-119400000D03*
X110587500Y-119900000D03*
X110587500Y-120400000D03*
X110587500Y-120900000D03*
D85*
X111275000Y-121587500D03*
X111775000Y-121587500D03*
X112275000Y-121587500D03*
X112775000Y-121587500D03*
X113275000Y-121587500D03*
X113775000Y-121587500D03*
X114275000Y-121587500D03*
X114775000Y-121587500D03*
X115275000Y-121587500D03*
X115775000Y-121587500D03*
X116275000Y-121587500D03*
X116775000Y-121587500D03*
%TD*%
D15*
%TO.C,C195*%
X76850000Y-140595000D03*
X76850000Y-139905000D03*
%TD*%
%TO.C,R128*%
X76300000Y-155545000D03*
X76300000Y-154855000D03*
%TD*%
D17*
%TO.C,R157*%
X165288997Y-123179495D03*
X164598997Y-123179495D03*
%TD*%
D15*
%TO.C,C159*%
X106150000Y-154195000D03*
X106150000Y-153505000D03*
%TD*%
D14*
%TO.C,R61*%
X134225000Y-114592500D03*
X134225000Y-115282500D03*
%TD*%
D18*
%TO.C,C168*%
X129685044Y-170048613D03*
X130645044Y-170048613D03*
%TD*%
D86*
%TO.C,RN4*%
X114457183Y-130210986D03*
D87*
X113957183Y-130210986D03*
X113457183Y-130210986D03*
D86*
X112957183Y-130210986D03*
X112957183Y-131210986D03*
D87*
X113457183Y-131210986D03*
X113957183Y-131210986D03*
D86*
X114457183Y-131210986D03*
%TD*%
D88*
%TO.C,RN6*%
X123113183Y-117769986D03*
D89*
X123113183Y-118269986D03*
X123113183Y-118769986D03*
D88*
X123113183Y-119269986D03*
X124113183Y-119269986D03*
D89*
X124113183Y-118769986D03*
X124113183Y-118269986D03*
D88*
X124113183Y-117769986D03*
%TD*%
D90*
%TO.C,FL1*%
X167489000Y-124301000D03*
X168089000Y-124301000D03*
X167489000Y-124801000D03*
X168089000Y-124801000D03*
%TD*%
D31*
%TO.C,FB5*%
X102780584Y-106395000D03*
X102780584Y-104820000D03*
%TD*%
D35*
%TO.C,R70*%
X170226956Y-109578200D03*
X170226956Y-110598200D03*
%TD*%
D15*
%TO.C,C178*%
X110151183Y-113021986D03*
X110151183Y-112331986D03*
%TD*%
D14*
%TO.C,R96*%
X109425000Y-168980000D03*
X109425000Y-169670000D03*
%TD*%
D91*
%TO.C,U40*%
X78975000Y-164500000D03*
X78975000Y-165000000D03*
X78975000Y-165500000D03*
X80825000Y-165500000D03*
X80825000Y-165000000D03*
X80825000Y-164500000D03*
D92*
X80300000Y-164550000D03*
D93*
X79900000Y-164550000D03*
D92*
X79500000Y-164550000D03*
D93*
X80300000Y-165000000D03*
X79900000Y-165000000D03*
X79500000Y-165000000D03*
D92*
X80300000Y-165450000D03*
D93*
X79900000Y-165450000D03*
D92*
X79500000Y-165450000D03*
%TD*%
D94*
%TO.C,U24*%
X72960000Y-169250000D03*
X72960000Y-168300000D03*
X72960000Y-167350000D03*
X70640000Y-167350000D03*
X70640000Y-168300000D03*
X70640000Y-169250000D03*
%TD*%
D24*
%TO.C,C197*%
X121647183Y-110898986D03*
X123547183Y-110898986D03*
%TD*%
D16*
%TO.C,C48*%
X108805000Y-162650000D03*
X109495000Y-162650000D03*
%TD*%
D95*
%TO.C,U37*%
X124011450Y-166583378D03*
X124011450Y-167233378D03*
X124011450Y-167883378D03*
X125911450Y-167883378D03*
X125911450Y-167233378D03*
X125911450Y-166583378D03*
%TD*%
D34*
%TO.C,R20*%
X72750000Y-166110000D03*
X72750000Y-165090000D03*
%TD*%
D29*
%TO.C,L29*%
X90450000Y-145650000D03*
X88650000Y-145650000D03*
%TD*%
D17*
%TO.C,R6*%
X128395000Y-138100000D03*
X127705000Y-138100000D03*
%TD*%
D14*
%TO.C,R87*%
X174862500Y-109305000D03*
X174862500Y-109995000D03*
%TD*%
D16*
%TO.C,C179*%
X119204183Y-119534986D03*
X119894183Y-119534986D03*
%TD*%
D27*
%TO.C,D10*%
X69500000Y-167270000D03*
X69500000Y-167930000D03*
%TD*%
D25*
%TO.C,C184*%
X131726919Y-106024300D03*
X131726919Y-107924300D03*
%TD*%
D96*
%TO.C,U38*%
X77100000Y-142975000D03*
X76600000Y-142975000D03*
X76100000Y-142975000D03*
X76100000Y-144825000D03*
X76600000Y-144825000D03*
X77100000Y-144825000D03*
D97*
X77050000Y-144300000D03*
D93*
X77050000Y-143900000D03*
D97*
X77050000Y-143500000D03*
D93*
X76600000Y-144300000D03*
X76600000Y-143900000D03*
X76600000Y-143500000D03*
D97*
X76150000Y-144300000D03*
D93*
X76150000Y-143900000D03*
D97*
X76150000Y-143500000D03*
%TD*%
D37*
%TO.C,R120*%
X79940000Y-139550000D03*
X80960000Y-139550000D03*
%TD*%
D17*
%TO.C,C74*%
X110145000Y-149000000D03*
X109455000Y-149000000D03*
%TD*%
D16*
%TO.C,C210*%
X78305000Y-167100000D03*
X78995000Y-167100000D03*
%TD*%
D14*
%TO.C,C56*%
X89900000Y-157255000D03*
X89900000Y-157945000D03*
%TD*%
D15*
%TO.C,C177*%
X109389183Y-113021986D03*
X109389183Y-112331986D03*
%TD*%
D86*
%TO.C,RN2*%
X106575183Y-123094986D03*
D87*
X106075183Y-123094986D03*
X105575183Y-123094986D03*
D86*
X105075183Y-123094986D03*
X105075183Y-124094986D03*
D87*
X105575183Y-124094986D03*
X106075183Y-124094986D03*
D86*
X106575183Y-124094986D03*
%TD*%
D88*
%TO.C,RN1*%
X106841183Y-115966986D03*
D89*
X106841183Y-115466986D03*
X106841183Y-114966986D03*
D88*
X106841183Y-114466986D03*
X105841183Y-114466986D03*
D89*
X105841183Y-114966986D03*
X105841183Y-115466986D03*
D88*
X105841183Y-115966986D03*
%TD*%
D98*
%TO.C,U28*%
X157158864Y-127784300D03*
X158108864Y-127784300D03*
X159058864Y-127784300D03*
X159058864Y-125464300D03*
X158108864Y-125464300D03*
X157158864Y-125464300D03*
%TD*%
D24*
%TO.C,C170*%
X105043920Y-103885000D03*
X106943920Y-103885000D03*
%TD*%
D15*
%TO.C,R22*%
X167476956Y-107958200D03*
X167476956Y-107268200D03*
%TD*%
D14*
%TO.C,R116*%
X78300000Y-167805000D03*
X78300000Y-168495000D03*
%TD*%
D17*
%TO.C,R152*%
X83445000Y-163950000D03*
X82755000Y-163950000D03*
%TD*%
D99*
%TO.C,FB6*%
X106620683Y-117502986D03*
X105045683Y-117502986D03*
%TD*%
D19*
%TO.C,C153*%
X85774150Y-107908200D03*
X85774150Y-108868200D03*
%TD*%
%TO.C,C80*%
X66400000Y-117420000D03*
X66400000Y-118380000D03*
%TD*%
D100*
%TO.C,U3*%
X113200000Y-154768500D03*
D101*
X113600000Y-154818500D03*
D102*
X114168500Y-154650000D03*
X114168500Y-154250000D03*
X114168500Y-153850000D03*
D101*
X113600000Y-153681500D03*
X113200000Y-153681500D03*
D102*
X112631500Y-153850000D03*
X112631500Y-154250000D03*
X112631500Y-154650000D03*
%TD*%
D34*
%TO.C,R89*%
X166176956Y-114710000D03*
X166176956Y-113690000D03*
%TD*%
D16*
%TO.C,C52*%
X79005000Y-163850000D03*
X79695000Y-163850000D03*
%TD*%
D103*
%TO.C,Q9*%
X167587500Y-111025000D03*
X168237500Y-111025000D03*
X168887500Y-111025000D03*
X168887500Y-109125000D03*
X168237500Y-109125000D03*
X167587500Y-109125000D03*
%TD*%
D17*
%TO.C,L18*%
X83595000Y-155500000D03*
X82905000Y-155500000D03*
%TD*%
D21*
%TO.C,C200*%
X72550000Y-157200000D03*
X70650000Y-157200000D03*
%TD*%
D17*
%TO.C,C185*%
X108464183Y-120042986D03*
X107774183Y-120042986D03*
%TD*%
D14*
%TO.C,R29*%
X72600000Y-163555000D03*
X72600000Y-164245000D03*
%TD*%
D17*
%TO.C,C76*%
X110145000Y-153500000D03*
X109455000Y-153500000D03*
%TD*%
D16*
%TO.C,C72*%
X115055000Y-158500000D03*
X115745000Y-158500000D03*
%TD*%
D15*
%TO.C,L16*%
X84300000Y-154095000D03*
X84300000Y-153405000D03*
%TD*%
D16*
%TO.C,R110*%
X115755000Y-149700000D03*
X116445000Y-149700000D03*
%TD*%
D15*
%TO.C,C139*%
X73900000Y-155545000D03*
X73900000Y-154855000D03*
%TD*%
D20*
%TO.C,C110*%
X63780000Y-141300000D03*
X62820000Y-141300000D03*
%TD*%
D16*
%TO.C,R106*%
X166853247Y-120022638D03*
X167543247Y-120022638D03*
%TD*%
%TO.C,L28*%
X75455000Y-145500000D03*
X76145000Y-145500000D03*
%TD*%
D15*
%TO.C,C109*%
X86100000Y-138745000D03*
X86100000Y-138055000D03*
%TD*%
D17*
%TO.C,R151*%
X80345000Y-141100000D03*
X79655000Y-141100000D03*
%TD*%
D15*
%TO.C,R21*%
X114469183Y-110735986D03*
X114469183Y-110045986D03*
%TD*%
%TO.C,L14*%
X90600000Y-157245000D03*
X90600000Y-156555000D03*
%TD*%
D86*
%TO.C,RN5*%
X117505183Y-130210986D03*
D87*
X117005183Y-130210986D03*
X116505183Y-130210986D03*
D86*
X116005183Y-130210986D03*
X116005183Y-131210986D03*
D87*
X116505183Y-131210986D03*
X117005183Y-131210986D03*
D86*
X117505183Y-131210986D03*
%TD*%
D16*
%TO.C,L31*%
X76905000Y-164000000D03*
X77595000Y-164000000D03*
%TD*%
%TO.C,C196*%
X119204183Y-118772986D03*
X119894183Y-118772986D03*
%TD*%
D104*
%TO.C,Q6*%
X132487500Y-115862500D03*
X132487500Y-113962500D03*
X130212500Y-114912500D03*
%TD*%
D105*
%TO.C,L4*%
X77100000Y-167500000D03*
X77100000Y-165700000D03*
%TD*%
D21*
%TO.C,C166*%
X95897745Y-105891800D03*
X93997745Y-105891800D03*
%TD*%
D15*
%TO.C,C142*%
X111750000Y-154195000D03*
X111750000Y-153505000D03*
%TD*%
D14*
%TO.C,L17*%
X85000000Y-156205000D03*
X85000000Y-156895000D03*
%TD*%
D105*
%TO.C,L33*%
X78050000Y-141000000D03*
X78050000Y-139200000D03*
%TD*%
D17*
%TO.C,C68*%
X74995000Y-160900000D03*
X74305000Y-160900000D03*
%TD*%
D15*
%TO.C,C190*%
X73050000Y-143395000D03*
X73050000Y-142705000D03*
%TD*%
D17*
%TO.C,R153*%
X77595000Y-164700000D03*
X76905000Y-164700000D03*
%TD*%
D32*
%TO.C,U22*%
X128910247Y-104534300D03*
X127010247Y-104534300D03*
X127960247Y-106809300D03*
%TD*%
D25*
%TO.C,C186*%
X116400000Y-140650000D03*
X116400000Y-142550000D03*
%TD*%
D34*
%TO.C,R100*%
X152632669Y-126376800D03*
X152632669Y-125356800D03*
%TD*%
D36*
%TO.C,R91*%
X168111956Y-105388200D03*
X167091956Y-105388200D03*
%TD*%
D16*
%TO.C,R23*%
X114340278Y-161050331D03*
X115030278Y-161050331D03*
%TD*%
D15*
%TO.C,R129*%
X76300000Y-156945000D03*
X76300000Y-156255000D03*
%TD*%
D17*
%TO.C,C188*%
X76145000Y-146900000D03*
X75455000Y-146900000D03*
%TD*%
D16*
%TO.C,C96*%
X85705000Y-156200000D03*
X86395000Y-156200000D03*
%TD*%
D58*
%TO.C,U13*%
X82350000Y-168550000D03*
X82350000Y-167900000D03*
X82350000Y-167250000D03*
X80450000Y-167250000D03*
X80450000Y-168550000D03*
%TD*%
D99*
%TO.C,FB3*%
X84321889Y-112085000D03*
X82746889Y-112085000D03*
%TD*%
D86*
%TO.C,RN3*%
X110647183Y-130210986D03*
D87*
X110147183Y-130210986D03*
X109647183Y-130210986D03*
D86*
X109147183Y-130210986D03*
X109147183Y-131210986D03*
D87*
X109647183Y-131210986D03*
X110147183Y-131210986D03*
D86*
X110647183Y-131210986D03*
%TD*%
D106*
%TO.C,FL3*%
X94800000Y-159462500D03*
D107*
X95262500Y-158600000D03*
D106*
X94800000Y-157737500D03*
D107*
X94337500Y-158600000D03*
%TD*%
D17*
%TO.C,R111*%
X115045000Y-149700000D03*
X114355000Y-149700000D03*
%TD*%
D25*
%TO.C,C167*%
X98073464Y-109619300D03*
X98073464Y-111519300D03*
%TD*%
D14*
%TO.C,C212*%
X96024365Y-171630000D03*
X96024365Y-172320000D03*
%TD*%
D34*
%TO.C,R71*%
X128450000Y-117197500D03*
X128450000Y-116177500D03*
%TD*%
D17*
%TO.C,C108*%
X115745000Y-149000000D03*
X115055000Y-149000000D03*
%TD*%
%TO.C,R92*%
X106120000Y-168275000D03*
X105430000Y-168275000D03*
%TD*%
D14*
%TO.C,C148*%
X118025183Y-123253986D03*
X118025183Y-123943986D03*
%TD*%
D28*
%TO.C,D18*%
X166087967Y-129976932D03*
X166747967Y-129976932D03*
%TD*%
D14*
%TO.C,R78*%
X175762500Y-114130000D03*
X175762500Y-114820000D03*
%TD*%
%TO.C,C69*%
X73650000Y-161905000D03*
X73650000Y-162595000D03*
%TD*%
%TO.C,R86*%
X168251956Y-113705000D03*
X168251956Y-114395000D03*
%TD*%
D27*
%TO.C,D16*%
X167301956Y-114170000D03*
X167301956Y-114830000D03*
%TD*%
D15*
%TO.C,R121*%
X101550000Y-143845000D03*
X101550000Y-143155000D03*
%TD*%
D19*
%TO.C,C33*%
X157109341Y-129534300D03*
X157109341Y-130494300D03*
%TD*%
D16*
%TO.C,R24*%
X105430000Y-167575000D03*
X106120000Y-167575000D03*
%TD*%
D15*
%TO.C,R32*%
X117025000Y-172194574D03*
X117025000Y-171504574D03*
%TD*%
D20*
%TO.C,C39*%
X128501919Y-163351347D03*
X127541919Y-163351347D03*
%TD*%
D16*
%TO.C,C141*%
X112955000Y-147100000D03*
X113645000Y-147100000D03*
%TD*%
D23*
%TO.C,C204*%
X100550000Y-137600000D03*
X100550000Y-135700000D03*
%TD*%
D17*
%TO.C,C91*%
X85695000Y-154100000D03*
X85005000Y-154100000D03*
%TD*%
D16*
%TO.C,R149*%
X112055000Y-161750000D03*
X112745000Y-161750000D03*
%TD*%
D17*
%TO.C,C202*%
X90545000Y-140950000D03*
X89855000Y-140950000D03*
%TD*%
D81*
%TO.C,FB2*%
X98143940Y-105874300D03*
X98143940Y-107449300D03*
%TD*%
D15*
%TO.C,R123*%
X75450000Y-140595000D03*
X75450000Y-139905000D03*
%TD*%
%TO.C,R135*%
X77750000Y-145095000D03*
X77750000Y-144405000D03*
%TD*%
D108*
%TO.C,U34*%
X106781500Y-148550000D03*
D109*
X106731500Y-148950000D03*
D110*
X106900000Y-149518500D03*
X107300000Y-149518500D03*
X107700000Y-149518500D03*
D109*
X107868500Y-148950000D03*
X107868500Y-148550000D03*
D110*
X107700000Y-147981500D03*
X107300000Y-147981500D03*
X106900000Y-147981500D03*
%TD*%
D17*
%TO.C,C189*%
X82445000Y-151700000D03*
X81755000Y-151700000D03*
%TD*%
D16*
%TO.C,R107*%
X154705000Y-133900000D03*
X155395000Y-133900000D03*
%TD*%
D14*
%TO.C,C101*%
X83600000Y-154105000D03*
X83600000Y-154795000D03*
%TD*%
D16*
%TO.C,C207*%
X84455000Y-164050000D03*
X85145000Y-164050000D03*
%TD*%
D111*
%TO.C,J1*%
X173305000Y-127250000D03*
X173305000Y-126450000D03*
D112*
X173305000Y-125250000D03*
X173305000Y-124250000D03*
X173305000Y-123750000D03*
X173305000Y-122750000D03*
D111*
X173305000Y-121550000D03*
X173305000Y-120750000D03*
X173305000Y-120750000D03*
X173305000Y-121550000D03*
D112*
X173305000Y-122250000D03*
X173305000Y-123250000D03*
X173305000Y-124750000D03*
X173305000Y-125750000D03*
D111*
X173305000Y-126450000D03*
X173305000Y-127250000D03*
D113*
X174220000Y-128320000D03*
D114*
X178400000Y-128320000D03*
D113*
X174220000Y-119680000D03*
D114*
X178400000Y-119680000D03*
%TD*%
D100*
%TO.C,U35*%
X107600000Y-154768500D03*
D101*
X108000000Y-154818500D03*
D102*
X108568500Y-154650000D03*
X108568500Y-154250000D03*
X108568500Y-153850000D03*
D101*
X108000000Y-153681500D03*
X107600000Y-153681500D03*
D102*
X107031500Y-153850000D03*
X107031500Y-154250000D03*
X107031500Y-154650000D03*
%TD*%
D115*
%TO.C,L19*%
X69900000Y-165950000D03*
X69900000Y-163850000D03*
%TD*%
D21*
%TO.C,C117*%
X103481183Y-118010986D03*
X101581183Y-118010986D03*
%TD*%
D17*
%TO.C,C187*%
X111645000Y-135000000D03*
X110955000Y-135000000D03*
%TD*%
D14*
%TO.C,R137*%
X76850000Y-141305000D03*
X76850000Y-141995000D03*
%TD*%
D18*
%TO.C,C155*%
X129149263Y-172191738D03*
X130109263Y-172191738D03*
%TD*%
D15*
%TO.C,R97*%
X108725000Y-169670000D03*
X108725000Y-168980000D03*
%TD*%
D17*
%TO.C,R142*%
X89145000Y-144450000D03*
X88455000Y-144450000D03*
%TD*%
D28*
%TO.C,D13*%
X158616342Y-116774128D03*
X159276342Y-116774128D03*
%TD*%
D116*
%TO.C,X1*%
X132316059Y-171485857D03*
X134416059Y-171485857D03*
X134416059Y-170085857D03*
X132316059Y-170085857D03*
%TD*%
D15*
%TO.C,C61*%
X87800000Y-157245000D03*
X87800000Y-156555000D03*
%TD*%
D27*
%TO.C,D17*%
X169151956Y-105918200D03*
X169151956Y-105258200D03*
%TD*%
D17*
%TO.C,R140*%
X139645000Y-134500000D03*
X138955000Y-134500000D03*
%TD*%
D21*
%TO.C,C181*%
X127975000Y-109062500D03*
X126075000Y-109062500D03*
%TD*%
D15*
%TO.C,C51*%
X89200000Y-155145000D03*
X89200000Y-154455000D03*
%TD*%
D14*
%TO.C,L6*%
X88250000Y-141655000D03*
X88250000Y-142345000D03*
%TD*%
D17*
%TO.C,C107*%
X115745000Y-153500000D03*
X115055000Y-153500000D03*
%TD*%
D35*
%TO.C,R60*%
X86836549Y-107878200D03*
X86836549Y-108898200D03*
%TD*%
D15*
%TO.C,R35*%
X71550000Y-164295000D03*
X71550000Y-163605000D03*
%TD*%
D17*
%TO.C,C176*%
X108464183Y-117248986D03*
X107774183Y-117248986D03*
%TD*%
D20*
%TO.C,C81*%
X63780000Y-136800000D03*
X62820000Y-136800000D03*
%TD*%
D117*
%TO.C,L21*%
X116250000Y-150700000D03*
X116250000Y-152500000D03*
%TD*%
D22*
%TO.C,C180*%
X129575000Y-117192500D03*
X129575000Y-116232500D03*
%TD*%
D34*
%TO.C,R44*%
X115485183Y-110900986D03*
X115485183Y-109880986D03*
%TD*%
D16*
%TO.C,R154*%
X81955000Y-164750000D03*
X82645000Y-164750000D03*
%TD*%
D17*
%TO.C,R146*%
X86545000Y-164050000D03*
X85855000Y-164050000D03*
%TD*%
D117*
%TO.C,L27*%
X74250000Y-143400000D03*
X74250000Y-145200000D03*
%TD*%
D118*
%TO.C,D15*%
X73650000Y-161290000D03*
X73650000Y-160910000D03*
%TD*%
D35*
%TO.C,R53*%
X127675000Y-110877500D03*
X127675000Y-111897500D03*
%TD*%
D15*
%TO.C,C6*%
X83350000Y-168645000D03*
X83350000Y-167955000D03*
%TD*%
%TO.C,R150*%
X80000000Y-142495000D03*
X80000000Y-141805000D03*
%TD*%
D58*
%TO.C,U27*%
X90574365Y-171675000D03*
X90574365Y-171025000D03*
X90574365Y-170375000D03*
X88674365Y-170375000D03*
X88674365Y-171675000D03*
%TD*%
D15*
%TO.C,C174*%
X111929183Y-113021986D03*
X111929183Y-112331986D03*
%TD*%
%TO.C,R147*%
X91450000Y-140245000D03*
X91450000Y-139555000D03*
%TD*%
D16*
%TO.C,C156*%
X107355000Y-147100000D03*
X108045000Y-147100000D03*
%TD*%
D17*
%TO.C,C95*%
X75495000Y-165400000D03*
X74805000Y-165400000D03*
%TD*%
%TO.C,C152*%
X167534000Y-120951000D03*
X166844000Y-120951000D03*
%TD*%
%TO.C,R156*%
X166979684Y-118128524D03*
X166289684Y-118128524D03*
%TD*%
D119*
%TO.C,FB1*%
X153496122Y-118764300D03*
X155071122Y-118764300D03*
%TD*%
D24*
%TO.C,C201*%
X79100000Y-153375000D03*
X81000000Y-153375000D03*
%TD*%
D16*
%TO.C,R138*%
X75455000Y-141300000D03*
X76145000Y-141300000D03*
%TD*%
D37*
%TO.C,R45*%
X119490183Y-117502986D03*
X120510183Y-117502986D03*
%TD*%
D14*
%TO.C,L12*%
X77000000Y-156255000D03*
X77000000Y-156945000D03*
%TD*%
%TO.C,C193*%
X77750000Y-143005000D03*
X77750000Y-143695000D03*
%TD*%
D15*
%TO.C,R126*%
X71550000Y-165945000D03*
X71550000Y-165255000D03*
%TD*%
D16*
%TO.C,C149*%
X119204183Y-121058986D03*
X119894183Y-121058986D03*
%TD*%
D34*
%TO.C,R113*%
X106250000Y-152710000D03*
X106250000Y-151690000D03*
%TD*%
D17*
%TO.C,C4*%
X78695000Y-155050000D03*
X78005000Y-155050000D03*
%TD*%
%TO.C,R112*%
X109445000Y-149700000D03*
X108755000Y-149700000D03*
%TD*%
D16*
%TO.C,C206*%
X80455000Y-169650000D03*
X81145000Y-169650000D03*
%TD*%
D117*
%TO.C,L22*%
X114550000Y-150700000D03*
X114550000Y-152500000D03*
%TD*%
D17*
%TO.C,C45*%
X108545000Y-166000000D03*
X107855000Y-166000000D03*
%TD*%
D36*
%TO.C,R38*%
X163549870Y-138253165D03*
X162529870Y-138253165D03*
%TD*%
D17*
%TO.C,R108*%
X134970000Y-167225000D03*
X134280000Y-167225000D03*
%TD*%
D16*
%TO.C,R127*%
X127355000Y-139450000D03*
X128045000Y-139450000D03*
%TD*%
D17*
%TO.C,C205*%
X108464183Y-117947782D03*
X107774183Y-117947782D03*
%TD*%
D108*
%TO.C,U8*%
X112381500Y-148550000D03*
D109*
X112331500Y-148950000D03*
D110*
X112500000Y-149518500D03*
X112900000Y-149518500D03*
X113300000Y-149518500D03*
D109*
X113468500Y-148950000D03*
X113468500Y-148550000D03*
D110*
X113300000Y-147981500D03*
X112900000Y-147981500D03*
X112500000Y-147981500D03*
%TD*%
D34*
%TO.C,R58*%
X166251956Y-110573200D03*
X166251956Y-109553200D03*
%TD*%
D35*
%TO.C,R80*%
X174787500Y-114215000D03*
X174787500Y-115235000D03*
%TD*%
D14*
%TO.C,C198*%
X88250000Y-143055000D03*
X88250000Y-143745000D03*
%TD*%
D15*
%TO.C,R109*%
X99600000Y-164545000D03*
X99600000Y-163855000D03*
%TD*%
D32*
%TO.C,Q4*%
X164926956Y-109200700D03*
X163026956Y-109200700D03*
X163976956Y-111475700D03*
%TD*%
D14*
%TO.C,R131*%
X73900000Y-153455000D03*
X73900000Y-154145000D03*
%TD*%
D22*
%TO.C,C32*%
X157109341Y-123826800D03*
X157109341Y-122866800D03*
%TD*%
D16*
%TO.C,R125*%
X62955000Y-138100000D03*
X63645000Y-138100000D03*
%TD*%
D35*
%TO.C,R88*%
X167301956Y-112290000D03*
X167301956Y-113310000D03*
%TD*%
D16*
%TO.C,R117*%
X83355000Y-166450000D03*
X84045000Y-166450000D03*
%TD*%
D15*
%TO.C,R132*%
X73050000Y-144795000D03*
X73050000Y-144105000D03*
%TD*%
D117*
%TO.C,L23*%
X110650000Y-150700000D03*
X110650000Y-152500000D03*
%TD*%
D23*
%TO.C,C154*%
X89443920Y-112700000D03*
X89443920Y-110800000D03*
%TD*%
D14*
%TO.C,R130*%
X73050000Y-145505000D03*
X73050000Y-146195000D03*
%TD*%
D17*
%TO.C,C47*%
X109495000Y-159800000D03*
X108805000Y-159800000D03*
%TD*%
D16*
%TO.C,C103*%
X83605000Y-156200000D03*
X84295000Y-156200000D03*
%TD*%
D31*
%TO.C,FB4*%
X130050000Y-112075000D03*
X130050000Y-110500000D03*
%TD*%
D17*
%TO.C,R141*%
X137245000Y-142450000D03*
X136555000Y-142450000D03*
%TD*%
%TO.C,R114*%
X81095000Y-163850000D03*
X80405000Y-163850000D03*
%TD*%
D120*
%TO.C,U33*%
X131372934Y-163568691D03*
X132372934Y-163568691D03*
D121*
X130185434Y-163818691D03*
D122*
X130622934Y-164756191D03*
X131122934Y-164756191D03*
X131622934Y-164756191D03*
X132122934Y-164756191D03*
X132622934Y-164756191D03*
X133122934Y-164756191D03*
D121*
X133560434Y-163818691D03*
X133560434Y-163318691D03*
D122*
X133122934Y-162381191D03*
X132622934Y-162381191D03*
X132122934Y-162381191D03*
X131622934Y-162381191D03*
X131122934Y-162381191D03*
X130622934Y-162381191D03*
D121*
X130185434Y-163318691D03*
%TD*%
D14*
%TO.C,R134*%
X75450000Y-142705000D03*
X75450000Y-143395000D03*
%TD*%
D18*
%TO.C,C140*%
X65320303Y-132410775D03*
X66280303Y-132410775D03*
%TD*%
D15*
%TO.C,R77*%
X175712500Y-109995000D03*
X175712500Y-109305000D03*
%TD*%
D82*
%TO.C,Q10*%
X176375000Y-111100000D03*
X175725000Y-111100000D03*
X175075000Y-111100000D03*
X175075000Y-113000000D03*
X175725000Y-113000000D03*
X176375000Y-113000000D03*
%TD*%
D14*
%TO.C,C208*%
X86450000Y-165205000D03*
X86450000Y-165895000D03*
%TD*%
D15*
%TO.C,R43*%
X89650000Y-143745000D03*
X89650000Y-143055000D03*
%TD*%
D14*
%TO.C,R57*%
X169076956Y-112205000D03*
X169076956Y-112895000D03*
%TD*%
D58*
%TO.C,U36*%
X116350000Y-157400000D03*
X116350000Y-156750000D03*
X116350000Y-156100000D03*
X114450000Y-156100000D03*
X114450000Y-157400000D03*
%TD*%
D15*
%TO.C,C151*%
X169114000Y-120496000D03*
X169114000Y-119806000D03*
%TD*%
%TO.C,C192*%
X75450000Y-144795000D03*
X75450000Y-144105000D03*
%TD*%
D17*
%TO.C,R119*%
X100245000Y-149100000D03*
X99555000Y-149100000D03*
%TD*%
D16*
%TO.C,R98*%
X88569365Y-172825000D03*
X87879365Y-172825000D03*
%TD*%
D14*
%TO.C,R145*%
X117137485Y-111569986D03*
X117137485Y-112259986D03*
%TD*%
D15*
%TO.C,R143*%
X91450000Y-145145000D03*
X91450000Y-144455000D03*
%TD*%
D58*
%TO.C,U30*%
X128858247Y-160342441D03*
X128858247Y-159692441D03*
X128858247Y-159042441D03*
X126958247Y-159042441D03*
X126958247Y-159692441D03*
X126958247Y-160342441D03*
%TD*%
D17*
%TO.C,C191*%
X74745000Y-146200000D03*
X74055000Y-146200000D03*
%TD*%
%TO.C,C78*%
X80945000Y-166150000D03*
X80255000Y-166150000D03*
%TD*%
D16*
%TO.C,R99*%
X89969365Y-172825000D03*
X89279365Y-172825000D03*
%TD*%
D17*
%TO.C,L34*%
X76145000Y-142000000D03*
X75455000Y-142000000D03*
%TD*%
D15*
%TO.C,C150*%
X112691183Y-113021986D03*
X112691183Y-112331986D03*
%TD*%
D117*
%TO.C,L24*%
X108950000Y-150700000D03*
X108950000Y-152500000D03*
%TD*%
D25*
%TO.C,C182*%
X132000000Y-110262500D03*
X132000000Y-112162500D03*
%TD*%
D14*
%TO.C,C211*%
X75450000Y-138505000D03*
X75450000Y-139195000D03*
%TD*%
D20*
%TO.C,C162*%
X63780000Y-132100000D03*
X62820000Y-132100000D03*
%TD*%
D34*
%TO.C,R90*%
X169151956Y-107873200D03*
X169151956Y-106853200D03*
%TD*%
D82*
%TO.C,Q7*%
X128312500Y-113087500D03*
X127662500Y-113087500D03*
X127012500Y-113087500D03*
X127012500Y-114987500D03*
X127662500Y-114987500D03*
X128312500Y-114987500D03*
%TD*%
D17*
%TO.C,R139*%
X129000000Y-165650000D03*
X128310000Y-165650000D03*
%TD*%
D25*
%TO.C,C172*%
X134290731Y-106024300D03*
X134290731Y-107924300D03*
%TD*%
D117*
%TO.C,L26*%
X75100000Y-153750000D03*
X75100000Y-155550000D03*
%TD*%
D19*
%TO.C,C43*%
X125964575Y-162153456D03*
X125964575Y-163113456D03*
%TD*%
D25*
%TO.C,C147*%
X150258380Y-117796800D03*
X150258380Y-119696800D03*
%TD*%
D27*
%TO.C,D14*%
X72850000Y-160920000D03*
X72850000Y-161580000D03*
%TD*%
D17*
%TO.C,R148*%
X112745000Y-161050000D03*
X112055000Y-161050000D03*
%TD*%
D14*
%TO.C,R41*%
X113500000Y-163080000D03*
X113500000Y-163770000D03*
%TD*%
D21*
%TO.C,C175*%
X124744052Y-104519300D03*
X122844052Y-104519300D03*
%TD*%
D16*
%TO.C,L15*%
X88505000Y-157250000D03*
X89195000Y-157250000D03*
%TD*%
D34*
%TO.C,R79*%
X176637500Y-109910000D03*
X176637500Y-108890000D03*
%TD*%
D15*
%TO.C,C2*%
X73950000Y-169145000D03*
X73950000Y-168455000D03*
%TD*%
D14*
%TO.C,R155*%
X76850000Y-146205000D03*
X76850000Y-146895000D03*
%TD*%
D24*
%TO.C,C169*%
X105043920Y-106425000D03*
X106943920Y-106425000D03*
%TD*%
D14*
%TO.C,R12*%
X120496763Y-159015878D03*
X120496763Y-159705878D03*
%TD*%
D15*
%TO.C,R42*%
X79000000Y-168495000D03*
X79000000Y-167805000D03*
%TD*%
D14*
%TO.C,R81*%
X168251956Y-112205000D03*
X168251956Y-112895000D03*
%TD*%
D88*
%TO.C,RN7*%
X123113183Y-113958986D03*
D89*
X123113183Y-114458986D03*
X123113183Y-114958986D03*
D88*
X123113183Y-115458986D03*
X124113183Y-115458986D03*
D89*
X124113183Y-114958986D03*
X124113183Y-114458986D03*
D88*
X124113183Y-113958986D03*
%TD*%
D15*
%TO.C,L30*%
X88950000Y-143745000D03*
X88950000Y-143055000D03*
%TD*%
D16*
%TO.C,R115*%
X78855000Y-166150000D03*
X79545000Y-166150000D03*
%TD*%
D86*
%TO.C,RN8*%
X111687183Y-110890986D03*
D87*
X112187183Y-110890986D03*
X112687183Y-110890986D03*
D86*
X113187183Y-110890986D03*
X113187183Y-109890986D03*
D87*
X112687183Y-109890986D03*
X112187183Y-109890986D03*
D86*
X111687183Y-109890986D03*
%TD*%
D19*
%TO.C,C173*%
X128775000Y-110907500D03*
X128775000Y-111867500D03*
%TD*%
D17*
%TO.C,C112*%
X71345000Y-162900000D03*
X70655000Y-162900000D03*
%TD*%
D123*
%TO.C,FL2*%
X92762500Y-163250000D03*
D124*
X91900000Y-162787500D03*
D123*
X91037500Y-163250000D03*
D124*
X91900000Y-163712500D03*
%TD*%
D15*
%TO.C,C44*%
X106450000Y-165995000D03*
X106450000Y-165305000D03*
%TD*%
D16*
%TO.C,C54*%
X90605000Y-155850000D03*
X91295000Y-155850000D03*
%TD*%
D17*
%TO.C,C183*%
X108464183Y-119280986D03*
X107774183Y-119280986D03*
%TD*%
D21*
%TO.C,C163*%
X80217717Y-106755000D03*
X78317717Y-106755000D03*
%TD*%
D17*
%TO.C,L8*%
X90595000Y-155150000D03*
X89905000Y-155150000D03*
%TD*%
D14*
%TO.C,R95*%
X104125000Y-171480000D03*
X104125000Y-172170000D03*
%TD*%
%TO.C,R103*%
X170018286Y-119818705D03*
X170018286Y-120508705D03*
%TD*%
D34*
%TO.C,R101*%
X159042200Y-123201800D03*
X159042200Y-122181800D03*
%TD*%
D33*
%TO.C,U32*%
X73032116Y-108577500D03*
X73032116Y-110477500D03*
X75307116Y-109527500D03*
%TD*%
D17*
%TO.C,R144*%
X89145000Y-140950000D03*
X88455000Y-140950000D03*
%TD*%
D28*
%TO.C,D11*%
X158616342Y-115186628D03*
X159276342Y-115186628D03*
%TD*%
D36*
%TO.C,R82*%
X165135000Y-133200000D03*
X164115000Y-133200000D03*
%TD*%
D17*
%TO.C,R118*%
X103545000Y-150700000D03*
X102855000Y-150700000D03*
%TD*%
D125*
%TO.C,U26*%
X106525000Y-170725000D03*
D126*
X106275000Y-169287500D03*
D127*
X105337500Y-169725000D03*
X105337500Y-170225000D03*
X105337500Y-170725000D03*
X105337500Y-171225000D03*
X105337500Y-171725000D03*
D126*
X106275000Y-172162500D03*
X106775000Y-172162500D03*
D127*
X107712500Y-171725000D03*
X107712500Y-171225000D03*
X107712500Y-170725000D03*
X107712500Y-170225000D03*
X107712500Y-169725000D03*
D126*
X106775000Y-169287500D03*
%TD*%
D14*
%TO.C,R124*%
X89650000Y-141655000D03*
X89650000Y-142345000D03*
%TD*%
D16*
%TO.C,C209*%
X83255000Y-162450000D03*
X83945000Y-162450000D03*
%TD*%
D99*
%TO.C,FB7*%
X134296325Y-103816800D03*
X132721325Y-103816800D03*
%TD*%
D23*
%TO.C,C165*%
X138456927Y-107289300D03*
X138456927Y-105389300D03*
%TD*%
D16*
%TO.C,C194*%
X77555000Y-142000000D03*
X78245000Y-142000000D03*
%TD*%
D29*
%TO.C,L5*%
X85450000Y-165250000D03*
X83650000Y-165250000D03*
%TD*%
D128*
%TO.C,U25*%
X78950000Y-157050000D03*
X78950000Y-156250000D03*
D129*
X79900000Y-157400000D03*
X79900000Y-156900000D03*
X79900000Y-156400000D03*
X79900000Y-155900000D03*
X78000000Y-155900000D03*
X78000000Y-156400000D03*
X78000000Y-156900000D03*
X78000000Y-157400000D03*
%TD*%
D17*
%TO.C,R84*%
X127353247Y-169622831D03*
X126663247Y-169622831D03*
%TD*%
D37*
%TO.C,R40*%
X119490183Y-116486986D03*
X120510183Y-116486986D03*
%TD*%
D36*
%TO.C,R39*%
X161460000Y-138300000D03*
X160440000Y-138300000D03*
%TD*%
D19*
%TO.C,C40*%
X123553559Y-162153456D03*
X123553559Y-163113456D03*
%TD*%
M02*
