%TF.GenerationSoftware,KiCad,Pcbnew,10.0.5*%
%TF.CreationDate,2026-09-17T15:40:27-07:00*%
%TF.ProjectId,q-radio,712d7261-6469-46f2-9e6b-696361645f70,1*%
%TF.SameCoordinates,Original*%
%TF.FileFunction,Drillmap*%
%TF.FilePolarity,Positive*%
%FSLAX45Y45*%
G04 Gerber Fmt 4.5, Leading zero omitted, Abs format (unit mm)*
G04 Created by KiCad (PCBNEW 10.0.5) date 2026-09-17 15:40:27*
%MOMM*%
%LPD*%
G01*
G04 APERTURE LIST*
%ADD10C,0.381000*%
%ADD11C,0.200000*%
%ADD12C,0.100000*%
G04 APERTURE END LIST*
D10*
X6000000Y-10400000D02*
G75*
G02*
X6400000Y-10000000I400000J0D01*
G01*
X6000000Y-15500000D02*
X6000000Y-10400000D01*
X6000000Y-16700000D02*
X6000000Y-17100000D01*
X6000000Y-16700000D02*
G75*
G02*
X6043934Y-16593934I150000J0D01*
G01*
X6043934Y-15606066D02*
G75*
G02*
X6000000Y-15500000I106066J106066D01*
G01*
X6043934Y-15606066D02*
X6106066Y-15663934D01*
X6043934Y-16593934D02*
X6106066Y-16536066D01*
X6106066Y-15663934D02*
G75*
G02*
X6150000Y-15770000I-106066J-106066D01*
G01*
X6150000Y-15770000D02*
X6150000Y-16430000D01*
X6150000Y-16430000D02*
G75*
G02*
X6106066Y-16536066I-150000J0D01*
G01*
X6400000Y-17500000D02*
G75*
G02*
X6000000Y-17100000I0J400000D01*
G01*
X6400000Y-17500000D02*
X17600000Y-17500000D01*
X6800000Y-10000000D02*
X6400000Y-10000000D01*
X6800000Y-10000000D02*
X16000000Y-10000000D01*
X17600000Y-10000000D02*
X16000000Y-10000000D01*
X17600000Y-10000000D02*
G75*
G02*
X18000000Y-10400000I0J-400000D01*
G01*
X17850000Y-14170000D02*
X17850000Y-14830000D01*
X17850000Y-14170000D02*
G75*
G02*
X17893934Y-14063934I150000J0D01*
G01*
X17850000Y-15970000D02*
X17850000Y-16630000D01*
X17850000Y-15970000D02*
G75*
G02*
X17893934Y-15863934I150000J0D01*
G01*
X17893934Y-14063934D02*
X17956066Y-14006066D01*
X17893934Y-14936066D02*
G75*
G02*
X17850000Y-14830000I106066J106066D01*
G01*
X17893934Y-14936066D02*
X17956066Y-14993934D01*
X17893934Y-15863934D02*
X17956066Y-15806066D01*
X17893934Y-16736066D02*
G75*
G02*
X17850000Y-16630000I106066J106066D01*
G01*
X17893934Y-16736066D02*
X17956066Y-16793934D01*
X17956066Y-14993934D02*
G75*
G02*
X18000000Y-15100000I-106066J-106066D01*
G01*
X17956066Y-16793934D02*
G75*
G02*
X18000000Y-16900000I-106066J-106066D01*
G01*
X18000000Y-10400000D02*
X18000000Y-13900000D01*
X18000000Y-13900000D02*
G75*
G02*
X17956066Y-14006066I-150000J0D01*
G01*
X18000000Y-15100000D02*
X18000000Y-15700000D01*
X18000000Y-15700000D02*
G75*
G02*
X17956066Y-15806066I-150000J0D01*
G01*
X18000000Y-17100000D02*
G75*
G02*
X17600000Y-17500000I-400000J0D01*
G01*
X18000000Y-17100000D02*
X18000000Y-16900000D01*
D11*
D12*
X17442500Y-12078500D02*
X17507500Y-12143500D01*
X17507500Y-12078500D02*
X17442500Y-12143500D01*
X17442500Y-12656500D02*
X17507500Y-12721500D01*
X17507500Y-12656500D02*
X17442500Y-12721500D01*
D11*
X6241727Y-17830534D02*
X6241727Y-17630534D01*
X6241727Y-17630534D02*
X6289346Y-17630534D01*
X6289346Y-17630534D02*
X6317917Y-17640058D01*
X6317917Y-17640058D02*
X6336965Y-17659105D01*
X6336965Y-17659105D02*
X6346489Y-17678153D01*
X6346489Y-17678153D02*
X6356012Y-17716248D01*
X6356012Y-17716248D02*
X6356012Y-17744820D01*
X6356012Y-17744820D02*
X6346489Y-17782915D01*
X6346489Y-17782915D02*
X6336965Y-17801962D01*
X6336965Y-17801962D02*
X6317917Y-17821010D01*
X6317917Y-17821010D02*
X6289346Y-17830534D01*
X6289346Y-17830534D02*
X6241727Y-17830534D01*
X6441727Y-17830534D02*
X6441727Y-17697200D01*
X6441727Y-17735296D02*
X6451251Y-17716248D01*
X6451251Y-17716248D02*
X6460774Y-17706724D01*
X6460774Y-17706724D02*
X6479822Y-17697200D01*
X6479822Y-17697200D02*
X6498870Y-17697200D01*
X6565536Y-17830534D02*
X6565536Y-17697200D01*
X6565536Y-17630534D02*
X6556012Y-17640058D01*
X6556012Y-17640058D02*
X6565536Y-17649581D01*
X6565536Y-17649581D02*
X6575060Y-17640058D01*
X6575060Y-17640058D02*
X6565536Y-17630534D01*
X6565536Y-17630534D02*
X6565536Y-17649581D01*
X6689346Y-17830534D02*
X6670298Y-17821010D01*
X6670298Y-17821010D02*
X6660774Y-17801962D01*
X6660774Y-17801962D02*
X6660774Y-17630534D01*
X6794108Y-17830534D02*
X6775060Y-17821010D01*
X6775060Y-17821010D02*
X6765536Y-17801962D01*
X6765536Y-17801962D02*
X6765536Y-17630534D01*
X7022679Y-17830534D02*
X7022679Y-17630534D01*
X7022679Y-17630534D02*
X7089346Y-17773391D01*
X7089346Y-17773391D02*
X7156012Y-17630534D01*
X7156012Y-17630534D02*
X7156012Y-17830534D01*
X7336965Y-17830534D02*
X7336965Y-17725772D01*
X7336965Y-17725772D02*
X7327441Y-17706724D01*
X7327441Y-17706724D02*
X7308393Y-17697200D01*
X7308393Y-17697200D02*
X7270298Y-17697200D01*
X7270298Y-17697200D02*
X7251251Y-17706724D01*
X7336965Y-17821010D02*
X7317917Y-17830534D01*
X7317917Y-17830534D02*
X7270298Y-17830534D01*
X7270298Y-17830534D02*
X7251251Y-17821010D01*
X7251251Y-17821010D02*
X7241727Y-17801962D01*
X7241727Y-17801962D02*
X7241727Y-17782915D01*
X7241727Y-17782915D02*
X7251251Y-17763867D01*
X7251251Y-17763867D02*
X7270298Y-17754343D01*
X7270298Y-17754343D02*
X7317917Y-17754343D01*
X7317917Y-17754343D02*
X7336965Y-17744820D01*
X7432203Y-17697200D02*
X7432203Y-17897200D01*
X7432203Y-17706724D02*
X7451251Y-17697200D01*
X7451251Y-17697200D02*
X7489346Y-17697200D01*
X7489346Y-17697200D02*
X7508393Y-17706724D01*
X7508393Y-17706724D02*
X7517917Y-17716248D01*
X7517917Y-17716248D02*
X7527441Y-17735296D01*
X7527441Y-17735296D02*
X7527441Y-17792439D01*
X7527441Y-17792439D02*
X7517917Y-17811486D01*
X7517917Y-17811486D02*
X7508393Y-17821010D01*
X7508393Y-17821010D02*
X7489346Y-17830534D01*
X7489346Y-17830534D02*
X7451251Y-17830534D01*
X7451251Y-17830534D02*
X7432203Y-17821010D01*
X7613155Y-17811486D02*
X7622679Y-17821010D01*
X7622679Y-17821010D02*
X7613155Y-17830534D01*
X7613155Y-17830534D02*
X7603632Y-17821010D01*
X7603632Y-17821010D02*
X7613155Y-17811486D01*
X7613155Y-17811486D02*
X7613155Y-17830534D01*
X7613155Y-17706724D02*
X7622679Y-17716248D01*
X7622679Y-17716248D02*
X7613155Y-17725772D01*
X7613155Y-17725772D02*
X7603632Y-17716248D01*
X7603632Y-17716248D02*
X7613155Y-17706724D01*
X7613155Y-17706724D02*
X7613155Y-17725772D01*
D12*
X5915950Y-18126550D02*
X5980950Y-18191550D01*
X5980950Y-18126550D02*
X5915950Y-18191550D01*
D11*
X6279822Y-18050534D02*
X6298870Y-18050534D01*
X6298870Y-18050534D02*
X6317917Y-18060058D01*
X6317917Y-18060058D02*
X6327441Y-18069581D01*
X6327441Y-18069581D02*
X6336965Y-18088629D01*
X6336965Y-18088629D02*
X6346489Y-18126724D01*
X6346489Y-18126724D02*
X6346489Y-18174343D01*
X6346489Y-18174343D02*
X6336965Y-18212439D01*
X6336965Y-18212439D02*
X6327441Y-18231486D01*
X6327441Y-18231486D02*
X6317917Y-18241010D01*
X6317917Y-18241010D02*
X6298870Y-18250534D01*
X6298870Y-18250534D02*
X6279822Y-18250534D01*
X6279822Y-18250534D02*
X6260774Y-18241010D01*
X6260774Y-18241010D02*
X6251251Y-18231486D01*
X6251251Y-18231486D02*
X6241727Y-18212439D01*
X6241727Y-18212439D02*
X6232203Y-18174343D01*
X6232203Y-18174343D02*
X6232203Y-18126724D01*
X6232203Y-18126724D02*
X6241727Y-18088629D01*
X6241727Y-18088629D02*
X6251251Y-18069581D01*
X6251251Y-18069581D02*
X6260774Y-18060058D01*
X6260774Y-18060058D02*
X6279822Y-18050534D01*
X6432203Y-18231486D02*
X6441727Y-18241010D01*
X6441727Y-18241010D02*
X6432203Y-18250534D01*
X6432203Y-18250534D02*
X6422679Y-18241010D01*
X6422679Y-18241010D02*
X6432203Y-18231486D01*
X6432203Y-18231486D02*
X6432203Y-18250534D01*
X6613155Y-18050534D02*
X6575060Y-18050534D01*
X6575060Y-18050534D02*
X6556012Y-18060058D01*
X6556012Y-18060058D02*
X6546489Y-18069581D01*
X6546489Y-18069581D02*
X6527441Y-18098153D01*
X6527441Y-18098153D02*
X6517917Y-18136248D01*
X6517917Y-18136248D02*
X6517917Y-18212439D01*
X6517917Y-18212439D02*
X6527441Y-18231486D01*
X6527441Y-18231486D02*
X6536965Y-18241010D01*
X6536965Y-18241010D02*
X6556012Y-18250534D01*
X6556012Y-18250534D02*
X6594108Y-18250534D01*
X6594108Y-18250534D02*
X6613155Y-18241010D01*
X6613155Y-18241010D02*
X6622679Y-18231486D01*
X6622679Y-18231486D02*
X6632203Y-18212439D01*
X6632203Y-18212439D02*
X6632203Y-18164820D01*
X6632203Y-18164820D02*
X6622679Y-18145772D01*
X6622679Y-18145772D02*
X6613155Y-18136248D01*
X6613155Y-18136248D02*
X6594108Y-18126724D01*
X6594108Y-18126724D02*
X6556012Y-18126724D01*
X6556012Y-18126724D02*
X6536965Y-18136248D01*
X6536965Y-18136248D02*
X6527441Y-18145772D01*
X6527441Y-18145772D02*
X6517917Y-18164820D01*
X6813155Y-18050534D02*
X6717917Y-18050534D01*
X6717917Y-18050534D02*
X6708393Y-18145772D01*
X6708393Y-18145772D02*
X6717917Y-18136248D01*
X6717917Y-18136248D02*
X6736965Y-18126724D01*
X6736965Y-18126724D02*
X6784584Y-18126724D01*
X6784584Y-18126724D02*
X6803632Y-18136248D01*
X6803632Y-18136248D02*
X6813155Y-18145772D01*
X6813155Y-18145772D02*
X6822679Y-18164820D01*
X6822679Y-18164820D02*
X6822679Y-18212439D01*
X6822679Y-18212439D02*
X6813155Y-18231486D01*
X6813155Y-18231486D02*
X6803632Y-18241010D01*
X6803632Y-18241010D02*
X6784584Y-18250534D01*
X6784584Y-18250534D02*
X6736965Y-18250534D01*
X6736965Y-18250534D02*
X6717917Y-18241010D01*
X6717917Y-18241010D02*
X6708393Y-18231486D01*
X6946489Y-18050534D02*
X6965536Y-18050534D01*
X6965536Y-18050534D02*
X6984584Y-18060058D01*
X6984584Y-18060058D02*
X6994108Y-18069581D01*
X6994108Y-18069581D02*
X7003632Y-18088629D01*
X7003632Y-18088629D02*
X7013155Y-18126724D01*
X7013155Y-18126724D02*
X7013155Y-18174343D01*
X7013155Y-18174343D02*
X7003632Y-18212439D01*
X7003632Y-18212439D02*
X6994108Y-18231486D01*
X6994108Y-18231486D02*
X6984584Y-18241010D01*
X6984584Y-18241010D02*
X6965536Y-18250534D01*
X6965536Y-18250534D02*
X6946489Y-18250534D01*
X6946489Y-18250534D02*
X6927441Y-18241010D01*
X6927441Y-18241010D02*
X6917917Y-18231486D01*
X6917917Y-18231486D02*
X6908393Y-18212439D01*
X6908393Y-18212439D02*
X6898870Y-18174343D01*
X6898870Y-18174343D02*
X6898870Y-18126724D01*
X6898870Y-18126724D02*
X6908393Y-18088629D01*
X6908393Y-18088629D02*
X6917917Y-18069581D01*
X6917917Y-18069581D02*
X6927441Y-18060058D01*
X6927441Y-18060058D02*
X6946489Y-18050534D01*
X7098870Y-18250534D02*
X7098870Y-18117200D01*
X7098870Y-18136248D02*
X7108393Y-18126724D01*
X7108393Y-18126724D02*
X7127441Y-18117200D01*
X7127441Y-18117200D02*
X7156013Y-18117200D01*
X7156013Y-18117200D02*
X7175060Y-18126724D01*
X7175060Y-18126724D02*
X7184584Y-18145772D01*
X7184584Y-18145772D02*
X7184584Y-18250534D01*
X7184584Y-18145772D02*
X7194108Y-18126724D01*
X7194108Y-18126724D02*
X7213155Y-18117200D01*
X7213155Y-18117200D02*
X7241727Y-18117200D01*
X7241727Y-18117200D02*
X7260774Y-18126724D01*
X7260774Y-18126724D02*
X7270298Y-18145772D01*
X7270298Y-18145772D02*
X7270298Y-18250534D01*
X7365536Y-18250534D02*
X7365536Y-18117200D01*
X7365536Y-18136248D02*
X7375060Y-18126724D01*
X7375060Y-18126724D02*
X7394108Y-18117200D01*
X7394108Y-18117200D02*
X7422679Y-18117200D01*
X7422679Y-18117200D02*
X7441727Y-18126724D01*
X7441727Y-18126724D02*
X7451251Y-18145772D01*
X7451251Y-18145772D02*
X7451251Y-18250534D01*
X7451251Y-18145772D02*
X7460774Y-18126724D01*
X7460774Y-18126724D02*
X7479822Y-18117200D01*
X7479822Y-18117200D02*
X7508393Y-18117200D01*
X7508393Y-18117200D02*
X7527441Y-18126724D01*
X7527441Y-18126724D02*
X7536965Y-18145772D01*
X7536965Y-18145772D02*
X7536965Y-18250534D01*
X7927441Y-18041010D02*
X7756013Y-18298153D01*
X8184584Y-18050534D02*
X8203632Y-18050534D01*
X8203632Y-18050534D02*
X8222679Y-18060058D01*
X8222679Y-18060058D02*
X8232203Y-18069581D01*
X8232203Y-18069581D02*
X8241727Y-18088629D01*
X8241727Y-18088629D02*
X8251251Y-18126724D01*
X8251251Y-18126724D02*
X8251251Y-18174343D01*
X8251251Y-18174343D02*
X8241727Y-18212439D01*
X8241727Y-18212439D02*
X8232203Y-18231486D01*
X8232203Y-18231486D02*
X8222679Y-18241010D01*
X8222679Y-18241010D02*
X8203632Y-18250534D01*
X8203632Y-18250534D02*
X8184584Y-18250534D01*
X8184584Y-18250534D02*
X8165536Y-18241010D01*
X8165536Y-18241010D02*
X8156013Y-18231486D01*
X8156013Y-18231486D02*
X8146489Y-18212439D01*
X8146489Y-18212439D02*
X8136965Y-18174343D01*
X8136965Y-18174343D02*
X8136965Y-18126724D01*
X8136965Y-18126724D02*
X8146489Y-18088629D01*
X8146489Y-18088629D02*
X8156013Y-18069581D01*
X8156013Y-18069581D02*
X8165536Y-18060058D01*
X8165536Y-18060058D02*
X8184584Y-18050534D01*
X8336965Y-18231486D02*
X8346489Y-18241010D01*
X8346489Y-18241010D02*
X8336965Y-18250534D01*
X8336965Y-18250534D02*
X8327441Y-18241010D01*
X8327441Y-18241010D02*
X8336965Y-18231486D01*
X8336965Y-18231486D02*
X8336965Y-18250534D01*
X8470298Y-18050534D02*
X8489346Y-18050534D01*
X8489346Y-18050534D02*
X8508394Y-18060058D01*
X8508394Y-18060058D02*
X8517918Y-18069581D01*
X8517918Y-18069581D02*
X8527441Y-18088629D01*
X8527441Y-18088629D02*
X8536965Y-18126724D01*
X8536965Y-18126724D02*
X8536965Y-18174343D01*
X8536965Y-18174343D02*
X8527441Y-18212439D01*
X8527441Y-18212439D02*
X8517918Y-18231486D01*
X8517918Y-18231486D02*
X8508394Y-18241010D01*
X8508394Y-18241010D02*
X8489346Y-18250534D01*
X8489346Y-18250534D02*
X8470298Y-18250534D01*
X8470298Y-18250534D02*
X8451251Y-18241010D01*
X8451251Y-18241010D02*
X8441727Y-18231486D01*
X8441727Y-18231486D02*
X8432203Y-18212439D01*
X8432203Y-18212439D02*
X8422679Y-18174343D01*
X8422679Y-18174343D02*
X8422679Y-18126724D01*
X8422679Y-18126724D02*
X8432203Y-18088629D01*
X8432203Y-18088629D02*
X8441727Y-18069581D01*
X8441727Y-18069581D02*
X8451251Y-18060058D01*
X8451251Y-18060058D02*
X8470298Y-18050534D01*
X8613156Y-18069581D02*
X8622679Y-18060058D01*
X8622679Y-18060058D02*
X8641727Y-18050534D01*
X8641727Y-18050534D02*
X8689346Y-18050534D01*
X8689346Y-18050534D02*
X8708394Y-18060058D01*
X8708394Y-18060058D02*
X8717918Y-18069581D01*
X8717918Y-18069581D02*
X8727441Y-18088629D01*
X8727441Y-18088629D02*
X8727441Y-18107677D01*
X8727441Y-18107677D02*
X8717918Y-18136248D01*
X8717918Y-18136248D02*
X8603632Y-18250534D01*
X8603632Y-18250534D02*
X8727441Y-18250534D01*
X8908394Y-18050534D02*
X8813156Y-18050534D01*
X8813156Y-18050534D02*
X8803632Y-18145772D01*
X8803632Y-18145772D02*
X8813156Y-18136248D01*
X8813156Y-18136248D02*
X8832203Y-18126724D01*
X8832203Y-18126724D02*
X8879822Y-18126724D01*
X8879822Y-18126724D02*
X8898870Y-18136248D01*
X8898870Y-18136248D02*
X8908394Y-18145772D01*
X8908394Y-18145772D02*
X8917918Y-18164820D01*
X8917918Y-18164820D02*
X8917918Y-18212439D01*
X8917918Y-18212439D02*
X8908394Y-18231486D01*
X8908394Y-18231486D02*
X8898870Y-18241010D01*
X8898870Y-18241010D02*
X8879822Y-18250534D01*
X8879822Y-18250534D02*
X8832203Y-18250534D01*
X8832203Y-18250534D02*
X8813156Y-18241010D01*
X8813156Y-18241010D02*
X8803632Y-18231486D01*
X9089346Y-18050534D02*
X9051251Y-18050534D01*
X9051251Y-18050534D02*
X9032203Y-18060058D01*
X9032203Y-18060058D02*
X9022679Y-18069581D01*
X9022679Y-18069581D02*
X9003632Y-18098153D01*
X9003632Y-18098153D02*
X8994108Y-18136248D01*
X8994108Y-18136248D02*
X8994108Y-18212439D01*
X8994108Y-18212439D02*
X9003632Y-18231486D01*
X9003632Y-18231486D02*
X9013156Y-18241010D01*
X9013156Y-18241010D02*
X9032203Y-18250534D01*
X9032203Y-18250534D02*
X9070299Y-18250534D01*
X9070299Y-18250534D02*
X9089346Y-18241010D01*
X9089346Y-18241010D02*
X9098870Y-18231486D01*
X9098870Y-18231486D02*
X9108394Y-18212439D01*
X9108394Y-18212439D02*
X9108394Y-18164820D01*
X9108394Y-18164820D02*
X9098870Y-18145772D01*
X9098870Y-18145772D02*
X9089346Y-18136248D01*
X9089346Y-18136248D02*
X9070299Y-18126724D01*
X9070299Y-18126724D02*
X9032203Y-18126724D01*
X9032203Y-18126724D02*
X9013156Y-18136248D01*
X9013156Y-18136248D02*
X9003632Y-18145772D01*
X9003632Y-18145772D02*
X8994108Y-18164820D01*
X9184584Y-18050534D02*
X9184584Y-18088629D01*
X9260775Y-18050534D02*
X9260775Y-18088629D01*
X9556013Y-18326724D02*
X9546489Y-18317200D01*
X9546489Y-18317200D02*
X9527441Y-18288629D01*
X9527441Y-18288629D02*
X9517918Y-18269581D01*
X9517918Y-18269581D02*
X9508394Y-18241010D01*
X9508394Y-18241010D02*
X9498870Y-18193391D01*
X9498870Y-18193391D02*
X9498870Y-18155296D01*
X9498870Y-18155296D02*
X9508394Y-18107677D01*
X9508394Y-18107677D02*
X9517918Y-18079105D01*
X9517918Y-18079105D02*
X9527441Y-18060058D01*
X9527441Y-18060058D02*
X9546489Y-18031486D01*
X9546489Y-18031486D02*
X9556013Y-18021962D01*
X9622680Y-18069581D02*
X9632203Y-18060058D01*
X9632203Y-18060058D02*
X9651251Y-18050534D01*
X9651251Y-18050534D02*
X9698870Y-18050534D01*
X9698870Y-18050534D02*
X9717918Y-18060058D01*
X9717918Y-18060058D02*
X9727441Y-18069581D01*
X9727441Y-18069581D02*
X9736965Y-18088629D01*
X9736965Y-18088629D02*
X9736965Y-18107677D01*
X9736965Y-18107677D02*
X9727441Y-18136248D01*
X9727441Y-18136248D02*
X9613156Y-18250534D01*
X9613156Y-18250534D02*
X9736965Y-18250534D01*
X9975061Y-18250534D02*
X9975061Y-18050534D01*
X10060775Y-18250534D02*
X10060775Y-18145772D01*
X10060775Y-18145772D02*
X10051251Y-18126724D01*
X10051251Y-18126724D02*
X10032203Y-18117200D01*
X10032203Y-18117200D02*
X10003632Y-18117200D01*
X10003632Y-18117200D02*
X9984584Y-18126724D01*
X9984584Y-18126724D02*
X9975061Y-18136248D01*
X10184584Y-18250534D02*
X10165537Y-18241010D01*
X10165537Y-18241010D02*
X10156013Y-18231486D01*
X10156013Y-18231486D02*
X10146489Y-18212439D01*
X10146489Y-18212439D02*
X10146489Y-18155296D01*
X10146489Y-18155296D02*
X10156013Y-18136248D01*
X10156013Y-18136248D02*
X10165537Y-18126724D01*
X10165537Y-18126724D02*
X10184584Y-18117200D01*
X10184584Y-18117200D02*
X10213156Y-18117200D01*
X10213156Y-18117200D02*
X10232203Y-18126724D01*
X10232203Y-18126724D02*
X10241727Y-18136248D01*
X10241727Y-18136248D02*
X10251251Y-18155296D01*
X10251251Y-18155296D02*
X10251251Y-18212439D01*
X10251251Y-18212439D02*
X10241727Y-18231486D01*
X10241727Y-18231486D02*
X10232203Y-18241010D01*
X10232203Y-18241010D02*
X10213156Y-18250534D01*
X10213156Y-18250534D02*
X10184584Y-18250534D01*
X10365537Y-18250534D02*
X10346489Y-18241010D01*
X10346489Y-18241010D02*
X10336965Y-18221962D01*
X10336965Y-18221962D02*
X10336965Y-18050534D01*
X10517918Y-18241010D02*
X10498870Y-18250534D01*
X10498870Y-18250534D02*
X10460775Y-18250534D01*
X10460775Y-18250534D02*
X10441727Y-18241010D01*
X10441727Y-18241010D02*
X10432203Y-18221962D01*
X10432203Y-18221962D02*
X10432203Y-18145772D01*
X10432203Y-18145772D02*
X10441727Y-18126724D01*
X10441727Y-18126724D02*
X10460775Y-18117200D01*
X10460775Y-18117200D02*
X10498870Y-18117200D01*
X10498870Y-18117200D02*
X10517918Y-18126724D01*
X10517918Y-18126724D02*
X10527442Y-18145772D01*
X10527442Y-18145772D02*
X10527442Y-18164820D01*
X10527442Y-18164820D02*
X10432203Y-18183867D01*
X10603632Y-18241010D02*
X10622680Y-18250534D01*
X10622680Y-18250534D02*
X10660775Y-18250534D01*
X10660775Y-18250534D02*
X10679823Y-18241010D01*
X10679823Y-18241010D02*
X10689346Y-18221962D01*
X10689346Y-18221962D02*
X10689346Y-18212439D01*
X10689346Y-18212439D02*
X10679823Y-18193391D01*
X10679823Y-18193391D02*
X10660775Y-18183867D01*
X10660775Y-18183867D02*
X10632203Y-18183867D01*
X10632203Y-18183867D02*
X10613156Y-18174343D01*
X10613156Y-18174343D02*
X10603632Y-18155296D01*
X10603632Y-18155296D02*
X10603632Y-18145772D01*
X10603632Y-18145772D02*
X10613156Y-18126724D01*
X10613156Y-18126724D02*
X10632203Y-18117200D01*
X10632203Y-18117200D02*
X10660775Y-18117200D01*
X10660775Y-18117200D02*
X10679823Y-18126724D01*
X10756013Y-18326724D02*
X10765537Y-18317200D01*
X10765537Y-18317200D02*
X10784584Y-18288629D01*
X10784584Y-18288629D02*
X10794108Y-18269581D01*
X10794108Y-18269581D02*
X10803632Y-18241010D01*
X10803632Y-18241010D02*
X10813156Y-18193391D01*
X10813156Y-18193391D02*
X10813156Y-18155296D01*
X10813156Y-18155296D02*
X10803632Y-18107677D01*
X10803632Y-18107677D02*
X10794108Y-18079105D01*
X10794108Y-18079105D02*
X10784584Y-18060058D01*
X10784584Y-18060058D02*
X10765537Y-18031486D01*
X10765537Y-18031486D02*
X10756013Y-18021962D01*
X11117918Y-18326724D02*
X11108394Y-18317200D01*
X11108394Y-18317200D02*
X11089346Y-18288629D01*
X11089346Y-18288629D02*
X11079823Y-18269581D01*
X11079823Y-18269581D02*
X11070299Y-18241010D01*
X11070299Y-18241010D02*
X11060775Y-18193391D01*
X11060775Y-18193391D02*
X11060775Y-18155296D01*
X11060775Y-18155296D02*
X11070299Y-18107677D01*
X11070299Y-18107677D02*
X11079823Y-18079105D01*
X11079823Y-18079105D02*
X11089346Y-18060058D01*
X11089346Y-18060058D02*
X11108394Y-18031486D01*
X11108394Y-18031486D02*
X11117918Y-18021962D01*
X11194108Y-18117200D02*
X11194108Y-18250534D01*
X11194108Y-18136248D02*
X11203632Y-18126724D01*
X11203632Y-18126724D02*
X11222680Y-18117200D01*
X11222680Y-18117200D02*
X11251251Y-18117200D01*
X11251251Y-18117200D02*
X11270299Y-18126724D01*
X11270299Y-18126724D02*
X11279822Y-18145772D01*
X11279822Y-18145772D02*
X11279822Y-18250534D01*
X11403632Y-18250534D02*
X11384584Y-18241010D01*
X11384584Y-18241010D02*
X11375061Y-18231486D01*
X11375061Y-18231486D02*
X11365537Y-18212439D01*
X11365537Y-18212439D02*
X11365537Y-18155296D01*
X11365537Y-18155296D02*
X11375061Y-18136248D01*
X11375061Y-18136248D02*
X11384584Y-18126724D01*
X11384584Y-18126724D02*
X11403632Y-18117200D01*
X11403632Y-18117200D02*
X11432203Y-18117200D01*
X11432203Y-18117200D02*
X11451251Y-18126724D01*
X11451251Y-18126724D02*
X11460775Y-18136248D01*
X11460775Y-18136248D02*
X11470299Y-18155296D01*
X11470299Y-18155296D02*
X11470299Y-18212439D01*
X11470299Y-18212439D02*
X11460775Y-18231486D01*
X11460775Y-18231486D02*
X11451251Y-18241010D01*
X11451251Y-18241010D02*
X11432203Y-18250534D01*
X11432203Y-18250534D02*
X11403632Y-18250534D01*
X11527442Y-18117200D02*
X11603632Y-18117200D01*
X11556013Y-18050534D02*
X11556013Y-18221962D01*
X11556013Y-18221962D02*
X11565537Y-18241010D01*
X11565537Y-18241010D02*
X11584584Y-18250534D01*
X11584584Y-18250534D02*
X11603632Y-18250534D01*
X11822680Y-18117200D02*
X11822680Y-18317200D01*
X11822680Y-18126724D02*
X11841727Y-18117200D01*
X11841727Y-18117200D02*
X11879823Y-18117200D01*
X11879823Y-18117200D02*
X11898870Y-18126724D01*
X11898870Y-18126724D02*
X11908394Y-18136248D01*
X11908394Y-18136248D02*
X11917918Y-18155296D01*
X11917918Y-18155296D02*
X11917918Y-18212439D01*
X11917918Y-18212439D02*
X11908394Y-18231486D01*
X11908394Y-18231486D02*
X11898870Y-18241010D01*
X11898870Y-18241010D02*
X11879823Y-18250534D01*
X11879823Y-18250534D02*
X11841727Y-18250534D01*
X11841727Y-18250534D02*
X11822680Y-18241010D01*
X12032203Y-18250534D02*
X12013156Y-18241010D01*
X12013156Y-18241010D02*
X12003632Y-18221962D01*
X12003632Y-18221962D02*
X12003632Y-18050534D01*
X12194108Y-18250534D02*
X12194108Y-18145772D01*
X12194108Y-18145772D02*
X12184584Y-18126724D01*
X12184584Y-18126724D02*
X12165537Y-18117200D01*
X12165537Y-18117200D02*
X12127442Y-18117200D01*
X12127442Y-18117200D02*
X12108394Y-18126724D01*
X12194108Y-18241010D02*
X12175061Y-18250534D01*
X12175061Y-18250534D02*
X12127442Y-18250534D01*
X12127442Y-18250534D02*
X12108394Y-18241010D01*
X12108394Y-18241010D02*
X12098870Y-18221962D01*
X12098870Y-18221962D02*
X12098870Y-18202915D01*
X12098870Y-18202915D02*
X12108394Y-18183867D01*
X12108394Y-18183867D02*
X12127442Y-18174343D01*
X12127442Y-18174343D02*
X12175061Y-18174343D01*
X12175061Y-18174343D02*
X12194108Y-18164820D01*
X12260775Y-18117200D02*
X12336965Y-18117200D01*
X12289346Y-18050534D02*
X12289346Y-18221962D01*
X12289346Y-18221962D02*
X12298870Y-18241010D01*
X12298870Y-18241010D02*
X12317918Y-18250534D01*
X12317918Y-18250534D02*
X12336965Y-18250534D01*
X12479823Y-18241010D02*
X12460775Y-18250534D01*
X12460775Y-18250534D02*
X12422680Y-18250534D01*
X12422680Y-18250534D02*
X12403632Y-18241010D01*
X12403632Y-18241010D02*
X12394108Y-18221962D01*
X12394108Y-18221962D02*
X12394108Y-18145772D01*
X12394108Y-18145772D02*
X12403632Y-18126724D01*
X12403632Y-18126724D02*
X12422680Y-18117200D01*
X12422680Y-18117200D02*
X12460775Y-18117200D01*
X12460775Y-18117200D02*
X12479823Y-18126724D01*
X12479823Y-18126724D02*
X12489346Y-18145772D01*
X12489346Y-18145772D02*
X12489346Y-18164820D01*
X12489346Y-18164820D02*
X12394108Y-18183867D01*
X12660775Y-18250534D02*
X12660775Y-18050534D01*
X12660775Y-18241010D02*
X12641727Y-18250534D01*
X12641727Y-18250534D02*
X12603632Y-18250534D01*
X12603632Y-18250534D02*
X12584584Y-18241010D01*
X12584584Y-18241010D02*
X12575061Y-18231486D01*
X12575061Y-18231486D02*
X12565537Y-18212439D01*
X12565537Y-18212439D02*
X12565537Y-18155296D01*
X12565537Y-18155296D02*
X12575061Y-18136248D01*
X12575061Y-18136248D02*
X12584584Y-18126724D01*
X12584584Y-18126724D02*
X12603632Y-18117200D01*
X12603632Y-18117200D02*
X12641727Y-18117200D01*
X12641727Y-18117200D02*
X12660775Y-18126724D01*
X12736965Y-18326724D02*
X12746489Y-18317200D01*
X12746489Y-18317200D02*
X12765537Y-18288629D01*
X12765537Y-18288629D02*
X12775061Y-18269581D01*
X12775061Y-18269581D02*
X12784584Y-18241010D01*
X12784584Y-18241010D02*
X12794108Y-18193391D01*
X12794108Y-18193391D02*
X12794108Y-18155296D01*
X12794108Y-18155296D02*
X12784584Y-18107677D01*
X12784584Y-18107677D02*
X12775061Y-18079105D01*
X12775061Y-18079105D02*
X12765537Y-18060058D01*
X12765537Y-18060058D02*
X12746489Y-18031486D01*
X12746489Y-18031486D02*
X12736965Y-18021962D01*
M02*
